<svg viewBox="0 0 330 200" xmlns="http://www.w3.org/2000/svg"><g><g><g><g><g><line x1="50" y1="177" x2="45" y2="177" style="visibility: inherit;" fill="rgb(0, 0, 0)" stroke="rgb(204, 204, 204)" stroke-width="1px"></line><line x1="50" y1="163.3846153846154" x2="45" y2="163.3846153846154" style="visibility: inherit;" fill="rgb(0, 0, 0)" stroke="rgb(204, 204, 204)" stroke-width="1px"></line><line x1="50" y1="149.76923076923077" x2="45" y2="149.76923076923077" style="visibility: inherit;" fill="rgb(0, 0, 0)" stroke="rgb(204, 204, 204)" stroke-width="1px"></line><line x1="50" y1="136.15384615384613" x2="45" y2="136.15384615384613" style="visibility: inherit;" fill="rgb(0, 0, 0)" stroke="rgb(204, 204, 204)" stroke-width="1px"></line><line x1="50" y1="122.53846153846153" x2="45" y2="122.53846153846153" style="visibility: inherit;" fill="rgb(0, 0, 0)" stroke="rgb(204, 204, 204)" stroke-width="1px"></line><line x1="50" y1="108.92307692307693" x2="45" y2="108.92307692307693" style="visibility: inherit;" fill="rgb(0, 0, 0)" stroke="rgb(204, 204, 204)" stroke-width="1px"></line><line x1="50" y1="95.3076923076923" x2="45" y2="95.3076923076923" style="visibility: inherit;" fill="rgb(0, 0, 0)" stroke="rgb(204, 204, 204)" stroke-width="1px"></line><line x1="50" y1="81.6923076923077" x2="45" y2="81.6923076923077" style="visibility: inherit;" fill="rgb(0, 0, 0)" stroke="rgb(204, 204, 204)" stroke-width="1px"></line><line x1="50" y1="68.07692307692307" x2="45" y2="68.07692307692307" style="visibility: inherit;" fill="rgb(0, 0, 0)" stroke="rgb(204, 204, 204)" stroke-width="1px"></line><line x1="50" y1="54.46153846153848" x2="45" y2="54.46153846153848" style="visibility: inherit;" fill="rgb(0, 0, 0)" stroke="rgb(204, 204, 204)" stroke-width="1px"></line><line x1="50" y1="40.84615384615386" x2="45" y2="40.84615384615386" style="visibility: inherit;" fill="rgb(0, 0, 0)" stroke="rgb(204, 204, 204)" stroke-width="1px"></line><line x1="50" y1="27.230769230769234" x2="45" y2="27.230769230769234" style="visibility: inherit;" fill="rgb(0, 0, 0)" stroke="rgb(204, 204, 204)" stroke-width="1px"></line><line x1="50" y1="13.615384615384626" x2="45" y2="13.615384615384626" style="visibility: inherit;" fill="rgb(0, 0, 0)" stroke="rgb(204, 204, 204)" stroke-width="1px"></line><line x1="50" y1="0" x2="45" y2="0" style="visibility: inherit;" fill="rgb(0, 0, 0)" stroke="rgb(204, 204, 204)" stroke-width="1px"></line></g><g transform="translate(40, 0)"><text x="0" y="177" dx="0em" dy="0.3em" style="text-anchor: end; visibility: hidden; font-family: Roboto, sans-serif; font-size: 12px; font-weight: 200;" fill="rgb(255, 255, 255)" stroke="none" stroke-width="1px">-0.2</text><text x="0" y="163.3846153846154" dx="0em" dy="0.3em" style="text-anchor: end; visibility: inherit; font-family: Roboto, sans-serif; font-size: 12px; font-weight: 200;" fill="rgb(255, 255, 255)" stroke="none" stroke-width="1px">-0.1</text><text x="0" y="149.76923076923077" dx="0em" dy="0.3em" style="text-anchor: end; visibility: hidden; font-family: Roboto, sans-serif; font-size: 12px; font-weight: 200;" fill="rgb(255, 255, 255)" stroke="none" stroke-width="1px">0</text><text x="0" y="136.15384615384613" dx="0em" dy="0.3em" style="text-anchor: end; visibility: inherit; font-family: Roboto, sans-serif; font-size: 12px; font-weight: 200;" fill="rgb(255, 255, 255)" stroke="none" stroke-width="1px">0.1</text><text x="0" y="122.53846153846153" dx="0em" dy="0.3em" style="text-anchor: end; visibility: hidden; font-family: Roboto, sans-serif; font-size: 12px; font-weight: 200;" fill="rgb(255, 255, 255)" stroke="none" stroke-width="1px">0.2</text><text x="0" y="108.92307692307693" dx="0em" dy="0.3em" style="text-anchor: end; visibility: inherit; font-family: Roboto, sans-serif; font-size: 12px; font-weight: 200;" fill="rgb(255, 255, 255)" stroke="none" stroke-width="1px">0.3</text><text x="0" y="95.3076923076923" dx="0em" dy="0.3em" style="text-anchor: end; visibility: hidden; font-family: Roboto, sans-serif; font-size: 12px; font-weight: 200;" fill="rgb(255, 255, 255)" stroke="none" stroke-width="1px">0.4</text><text x="0" y="81.6923076923077" dx="0em" dy="0.3em" style="text-anchor: end; visibility: inherit; font-family: Roboto, sans-serif; font-size: 12px; font-weight: 200;" fill="rgb(255, 255, 255)" stroke="none" stroke-width="1px">0.5</text><text x="0" y="68.07692307692307" dx="0em" dy="0.3em" style="text-anchor: end; visibility: hidden; font-family: Roboto, sans-serif; font-size: 12px; font-weight: 200;" fill="rgb(255, 255, 255)" stroke="none" stroke-width="1px">0.6</text><text x="0" y="54.46153846153848" dx="0em" dy="0.3em" style="text-anchor: end; visibility: inherit; font-family: Roboto, sans-serif; font-size: 12px; font-weight: 200;" fill="rgb(255, 255, 255)" stroke="none" stroke-width="1px">0.7</text><text x="0" y="40.84615384615386" dx="0em" dy="0.3em" style="text-anchor: end; visibility: hidden; font-family: Roboto, sans-serif; font-size: 12px; font-weight: 200;" fill="rgb(255, 255, 255)" stroke="none" stroke-width="1px">0.8</text><text x="0" y="27.230769230769234" dx="0em" dy="0.3em" style="text-anchor: end; visibility: inherit; font-family: Roboto, sans-serif; font-size: 12px; font-weight: 200;" fill="rgb(255, 255, 255)" stroke="none" stroke-width="1px">0.9</text><text x="0" y="13.615384615384626" dx="0em" dy="0.3em" style="text-anchor: end; visibility: hidden; font-family: Roboto, sans-serif; font-size: 12px; font-weight: 200;" fill="rgb(255, 255, 255)" stroke="none" stroke-width="1px">1</text><text x="0" y="0" dx="0em" dy="0.3em" style="text-anchor: end; visibility: hidden; font-family: Roboto, sans-serif; font-size: 12px; font-weight: 200;" fill="rgb(255, 255, 255)" stroke="none" stroke-width="1px">1.1</text></g><line x1="50" y1="0" x2="50" y2="177" fill="rgb(0, 0, 0)" stroke="rgb(204, 204, 204)" stroke-width="1px"></line></g></g><g transform="translate(50, 0)" clip-path="url(#clip_0)"><clipPath id="clip_0"><rect width="280" height="177"></rect></clipPath><g><g><g><line x1="0" y1="0" x2="0" y2="177" fill="rgb(0, 0, 0)" stroke="rgb(189, 189, 189)" stroke-width="1px" opacity="0.25"></line><line x1="25.454545454545457" y1="0" x2="25.454545454545457" y2="177" fill="rgb(0, 0, 0)" stroke="rgb(189, 189, 189)" stroke-width="1px" opacity="0.25"></line><line x1="50.909090909090914" y1="0" x2="50.909090909090914" y2="177" fill="rgb(0, 0, 0)" stroke="rgb(189, 189, 189)" stroke-width="1px" opacity="0.25"></line><line x1="76.36363636363636" y1="0" x2="76.36363636363636" y2="177" fill="rgb(0, 0, 0)" stroke="rgb(189, 189, 189)" stroke-width="1px" opacity="0.25"></line><line x1="101.81818181818183" y1="0" x2="101.81818181818183" y2="177" fill="rgb(0, 0, 0)" stroke="rgb(189, 189, 189)" stroke-width="1px" opacity="0.25"></line><line x1="127.27272727272727" y1="0" x2="127.27272727272727" y2="177" fill="rgb(0, 0, 0)" stroke="rgb(189, 189, 189)" stroke-width="1px" opacity="0.25"></line><line x1="152.72727272727272" y1="0" x2="152.72727272727272" y2="177" fill="rgb(0, 0, 0)" stroke="rgb(189, 189, 189)" stroke-width="1px" opacity="0.25"></line><line x1="178.1818181818182" y1="0" x2="178.1818181818182" y2="177" fill="rgb(0, 0, 0)" stroke="rgb(189, 189, 189)" stroke-width="1px" opacity="0.25"></line><line x1="203.63636363636365" y1="0" x2="203.63636363636365" y2="177" fill="rgb(0, 0, 0)" stroke="rgb(189, 189, 189)" stroke-width="1px" opacity="0.25"></line><line x1="229.0909090909091" y1="0" x2="229.0909090909091" y2="177" fill="rgb(0, 0, 0)" stroke="rgb(189, 189, 189)" stroke-width="1px" opacity="0.25"></line><line x1="254.54545454545453" y1="0" x2="254.54545454545453" y2="177" fill="rgb(0, 0, 0)" stroke="rgb(189, 189, 189)" stroke-width="1px" opacity="0.25"></line><line x1="280" y1="0" x2="280" y2="177" fill="rgb(0, 0, 0)" stroke="rgb(189, 189, 189)" stroke-width="1px" opacity="0.25"></line></g><g><line x1="0" y1="177" x2="280" y2="177" fill="rgb(0, 0, 0)" stroke="rgb(189, 189, 189)" stroke-width="1px" opacity="0.25"></line><line x1="0" y1="163.3846153846154" x2="280" y2="163.3846153846154" fill="rgb(0, 0, 0)" stroke="rgb(189, 189, 189)" stroke-width="1px" opacity="0.25"></line><line x1="0" y1="149.76923076923077" x2="280" y2="149.76923076923077" fill="rgb(0, 0, 0)" stroke="rgb(189, 189, 189)" stroke-width="1px" opacity="0.25"></line><line x1="0" y1="136.15384615384613" x2="280" y2="136.15384615384613" fill="rgb(0, 0, 0)" stroke="rgb(189, 189, 189)" stroke-width="1px" opacity="0.25"></line><line x1="0" y1="122.53846153846153" x2="280" y2="122.53846153846153" fill="rgb(0, 0, 0)" stroke="rgb(189, 189, 189)" stroke-width="1px" opacity="0.25"></line><line x1="0" y1="108.92307692307693" x2="280" y2="108.92307692307693" fill="rgb(0, 0, 0)" stroke="rgb(189, 189, 189)" stroke-width="1px" opacity="0.25"></line><line x1="0" y1="95.3076923076923" x2="280" y2="95.3076923076923" fill="rgb(0, 0, 0)" stroke="rgb(189, 189, 189)" stroke-width="1px" opacity="0.25"></line><line x1="0" y1="81.6923076923077" x2="280" y2="81.6923076923077" fill="rgb(0, 0, 0)" stroke="rgb(189, 189, 189)" stroke-width="1px" opacity="0.25"></line><line x1="0" y1="68.07692307692307" x2="280" y2="68.07692307692307" fill="rgb(0, 0, 0)" stroke="rgb(189, 189, 189)" stroke-width="1px" opacity="0.25"></line><line x1="0" y1="54.46153846153848" x2="280" y2="54.46153846153848" fill="rgb(0, 0, 0)" stroke="rgb(189, 189, 189)" stroke-width="1px" opacity="0.25"></line><line x1="0" y1="40.84615384615386" x2="280" y2="40.84615384615386" fill="rgb(0, 0, 0)" stroke="rgb(189, 189, 189)" stroke-width="1px" opacity="0.25"></line><line x1="0" y1="27.230769230769234" x2="280" y2="27.230769230769234" fill="rgb(0, 0, 0)" stroke="rgb(189, 189, 189)" stroke-width="1px" opacity="0.25"></line><line x1="0" y1="13.615384615384626" x2="280" y2="13.615384615384626" fill="rgb(0, 0, 0)" stroke="rgb(189, 189, 189)" stroke-width="1px" opacity="0.25"></line><line x1="0" y1="0" x2="280" y2="0" fill="rgb(0, 0, 0)" stroke="rgb(189, 189, 189)" stroke-width="1px" opacity="0.25"></line></g></g></g><g><g><line x1="0" y1="149.76923076923077" x2="280" y2="149.76923076923077" fill="rgb(0, 0, 0)" stroke="rgb(153, 153, 153)" stroke-width="1.5px"></line></g></g><g><g><line x1="25.454545454545457" y1="0" x2="25.454545454545457" y2="177" fill="rgb(0, 0, 0)" stroke="rgb(153, 153, 153)" stroke-width="1.5px"></line></g></g><g><g><g><g><g><path stroke="rgb(255, 112, 67)" stroke-width="2px" d="M26.090909090909093,32.907617651499244L26.21818181818182,29.38870849288428L26.727272727272727,25.593593709884328L26.854545454545452,23.214760060021792L27.10909090909091,21.644059031045188L27.236363636363638,20.491130136515498L27.363636363636363,19.779806553439496L27.745454545454546,18.950647442903026L27.872727272727275,18.35210887050531L28,17.892781855831387L28.50909090909091,17.312963819653138L29.654545454545456,16.93346361779081L29.781818181818185,16.660328895298672L30.036363636363635,16.423993239935985L30.545454545454543,16.126021958408096L30.8,16.153615661944436L31.054545454545455,15.915248202027747L31.18181818181818,15.817477162012437L31.436363636363637,15.929436509305173L31.690909090909088,15.742404600980095L31.818181818181817,15.81244627442245L32.2,15.676328392175128L32.32727272727273,15.820758930751381L32.45454545454545,15.8306801685981L32.58181818181818,15.560513670981816L32.70909090909091,15.445006487334801L33.09090909090909,15.281151285109713L33.21818181818182,15.322608296213279L33.472727272727276,15.211137196558665L33.72727272727273,15.188788650908622L33.85454545454545,15.088366178810452L33.981818181818184,15.030852463886623L34.10909090909091,14.937423173018857L34.49090909090909,14.914252455880666L34.61818181818182,14.992846129285528L34.74545454545454,14.950245989457045L34.872727272727275,14.879466887652173L35.509090909090915,14.903458074164115L36.14545454545455,14.823986804336345L36.27272727272727,14.787951266994847L36.4,14.826624132655057L36.52727272727273,14.677852752825121L36.654545454545456,14.694106377059176L36.78181818181819,14.703858551596609L37.41818181818182,14.680932642117975L38.43636363636364,14.648677226864459L38.81818181818182,14.588899539088855L38.945454545454545,14.546180281284327L39.836363636363636,14.543161481717751L40.21818181818182,14.496127937907694L40.47272727272727,14.470647571213833L40.599999999999994,14.444397066669277L40.72727272727273,14.601991742862273L41.236363636363635,14.485522136787568L41.36363636363637,14.58761222610571L41.49090909090909,14.48922659105798L41.87272727272727,14.43636291527181L42,14.440271322976882L42.89090909090909,14.335733281908928L43.14545454545454,14.320284294871195L43.4,14.334997537559731L43.52727272727273,14.369859691617318L43.654545454545456,14.384612524970105L43.78181818181818,14.366741830478642L44.29090909090909,14.445775755864707L44.54545454545455,14.437696502396234L44.92727272727273,14.48903349891325L45.054545454545455,14.321138203196895L45.18181818181819,14.33139699700665L45.43636363636363,14.340980218943026L45.56363636363636,14.324802336887611L45.69090909090909,14.339763182463512L46.07272727272728,14.370664258865643L46.32727272727273,14.295338923238154L46.45454545454546,14.344694643228413L46.709090909090904,14.364030730592239L46.836363636363636,14.328355299246835L47.21818181818182,14.2610460826325L47.85454545454545,14.241900181822496L47.98181818181818,14.310576578685083L48.10909090909091,14.405223959648158L48.36363636363637,14.38253339077537L48.74545454545455,14.316847386402154L49,14.305528058077247L49.127272727272725,14.267904427191377L49.38181818181818,14.330288765294272L49.63636363636364,14.258096522873112L49.763636363636365,14.270962479857795L50.654545454545456,14.222500751611205L51.67272727272727,14.30167668015022L51.8,14.196391947614874L51.92727272727273,14.217494684830111L52.43636363636364,14.230156327159246L52.81818181818181,14.206921278665767L53.2,14.155298816698984L53.32727272727273,14.210653735949284L53.709090909090904,14.154110345418555L53.836363636363636,14.148276585399145L54.090909090909086,14.309898783370523L54.21818181818182,14.23215724343798L54.345454545454544,14.163587750421891L54.6,14.16766831868201L54.98181818181818,14.152986669867317L55.10909090909091,14.185971998997756L55.236363636363635,14.207818016169917L55.61818181818182,14.274367169318761L56,14.309502081922199L56.63636363636363,14.201087188678041L56.89090909090909,14.256626628703419L57.14545454545455,14.154289992830627L57.27272727272727,14.205938802240409L57.90909090909091,14.28488686538732L58.290909090909096,14.306906434728994L58.41818181818182,14.211861964686385L58.54545454545454,14.213074650952814L58.67272727272727,14.425516860561409L58.92727272727272,14.345380474026337L59.43636363636364,14.23220662867288L59.690909090909095,14.21705892440831L59.945454545454545,14.252507626021368L60.199999999999996,14.41149196657117L60.83636363636364,14.405479004393845L61.090909090909086,14.307320305720712L61.6,14.194298603773323L62.236363636363635,14.121002817260425L62.49090909090909,14.087302689983018L62.61818181818182,14.10887693203579L63.25454545454546,14.082770164600776L63.381818181818176,14.147266795327694L63.50909090909091,14.614873488645193L63.763636363636365,14.40691954166641L63.89090909090909,14.317092092918617L64.01818181818182,14.222771185046646L64.52727272727273,14.274431605810413L64.65454545454546,14.215674762348394L64.9090909090909,14.26880387239552L65.2909090909091,14.268479424736894L65.8,14.206620688359848L65.92727272727272,14.214042770705403L66.05454545454545,14.173958695940915L66.18181818181819,14.141000786247897L66.43636363636364,14.163020358851314L66.81818181818183,14.139920549338596L66.94545454545455,14.255553258276546L67.07272727272726,14.194070409197762L67.45454545454545,14.365467351948723L67.58181818181818,14.266183324482883L67.83636363636364,14.214150493041773L68.6,14.17470826924073L68.85454545454546,14.140765590329776L69.23636363636363,14.10464311916908L69.36363636363637,14.177520557839454L69.61818181818181,14.297298072841725L69.74545454545455,14.399311675836058L70.38181818181818,14.264565349758701L70.50909090909092,14.354322773439742L70.76363636363637,14.37323230820892L71.01818181818183,14.42431752779576L71.14545454545454,14.303551495845682L71.27272727272727,14.276995834482745L71.65454545454546,14.273394601989224L72.16363636363637,14.230124483971867L72.2909090909091,14.25554913631303L72.54545454545455,14.379745079263323L72.67272727272727,14.33367426906163L72.92727272727272,15.185770535599143L73.43636363636364,14.732331026228701L73.56363636363638,14.661701327664181L73.69090909090909,14.500793198408193L73.94545454545455,14.30352969424539L74.07272727272726,14.653131619295698L74.58181818181818,14.555945561373031L74.70909090909092,14.37225097136174L74.83636363636364,14.31273275444791L75.0909090909091,14.23728557173497L75.21818181818182,14.241345919404196L75.34545454545454,14.20335768938242L75.47272727272727,14.177824991777488L76.61818181818181,14.421493808666296L76.74545454545455,14.22785778610121L77.38181818181818,14.20417227423499L78.27272727272727,14.27766248950228L78.4,14.160743804067494L78.9090909090909,14.207068083229956L79.03636363636365,14.190328572716306L79.16363636363636,14.233041469355623L79.41818181818182,14.201802965003841L79.67272727272727,14.219371415467531L80.18181818181819,14.33885363729134L81.32727272727273,14.294752419860272L81.45454545454545,14.38339730002901L81.58181818181819,14.410546773525146L81.7090909090909,14.24938183931555L82.09090909090908,14.16775804886663L82.47272727272727,14.185242421665004L82.85454545454544,14.163531131657129L83.74545454545454,14.238202633878736L83.87272727272727,14.182975094661124L84,14.279331165776131L84.12727272727274,14.223409077613695L84.38181818181819,14.128876696832295L84.50909090909092,14.177670474258543L84.89090909090909,15.072983449252634L85.01818181818182,14.773596679805719L85.14545454545454,14.539153195496118L85.39999999999999,14.690362393947023L85.65454545454546,14.501544788305145L85.78181818181818,14.487602971733276L86.29090909090908,14.59023385302971L87.18181818181817,14.435988144570924L87.56363636363636,14.333848314763335L87.69090909090909,14.277358996164612L87.94545454545454,14.171523992593189L88.2,14.170371998130175L88.58181818181818,14.355357944696038L89.98181818181818,14.180641928841316L90.36363636363637,14.274506566794347L90.49090909090908,14.254086111707467L90.61818181818181,14.206207225478556L90.87272727272726,14.237774081727135L91.12727272727273,14.25260130992776L91.25454545454546,14.192299240188506L91.50909090909092,14.18009738709547L92.14545454545456,14.209776014373046L92.27272727272727,14.137141908760686L93.03636363636363,14.138095523404424L93.2909090909091,14.169499726081607L93.41818181818181,14.13558564474041L93.54545454545455,14.114552256037685L93.67272727272727,14.134819076400936L93.80000000000001,14.10792460979156L93.92727272727272,14.308982046858482L94.05454545454546,14.217220217512596L94.18181818181819,14.150515895478758L94.3090909090909,14.163249905206026L94.43636363636364,14.175684890328213L94.69090909090909,14.122854939576218L95.07272727272728,14.174057419904901L95.2,14.144487966276799L95.32727272727273,14.114410883615049L95.58181818181818,14.138847138495874L96.0909090909091,14.093214703438422L96.34545454545456,14.152163638834324L96.6,14.16218373152541L97.10909090909091,14.108586539052112L97.23636363636363,14.137407351452055L97.36363636363636,14.080703606785868L97.61818181818182,14.119992652194304L97.87272727272727,14.061347322396882L98.12727272727273,14.067954442937648L98.38181818181819,14.026696451192327L98.5090909090909,13.977962267394624L98.8909090909091,14.105621686162618L99.14545454545454,14.34665485150845L99.27272727272728,14.35492951092996L99.39999999999999,14.467462332171847L99.52727272727273,14.332863077961242L99.65454545454546,14.328154577234914L99.78181818181818,14.202686281133373L100.03636363636365,14.177422146828007L100.16363636363636,14.117044648335687L100.8,14.078078389648393L100.92727272727274,14.086215608224917L101.18181818181819,14.066430364561716L101.30909090909091,14.123760871184048L101.43636363636362,14.06566307348466L101.81818181818183,14.073283653182203L102.07272727272728,14.041544447925993L102.32727272727273,13.995778530269172L102.58181818181819,14.014911123540825L102.83636363636363,13.994185519656238L103.0909090909091,14.60113059473631L103.21818181818182,14.387026580894798L103.34545454545454,14.3462656949769L103.72727272727273,14.228628121855339L104.23636363636363,14.400588963561425L104.36363636363637,14.276294006922221L104.61818181818182,14.201717032938678L105,14.108327131149535L105.50909090909092,14.055032949667996L106.14545454545454,14.08746026815284L107.03636363636363,14.111026298631634L107.16363636363637,14.156686136868457L107.41818181818181,14.115565326888278L107.54545454545455,14.243683130558905L107.67272727272727,14.230112530782382L107.8,14.367907815434815L107.92727272727272,14.263537963186678L108.05454545454546,14.220785801200439L108.30909090909091,14.166357289811677L108.43636363636364,14.246066034013918L108.94545454545455,14.485047942962714L109.07272727272726,14.418780556337838L109.58181818181818,14.25363716910521L109.96363636363635,14.20525292001922L110.21818181818182,14.207054404458578L110.34545454545454,14.182097840517063L110.47272727272727,14.16232932286635L110.85454545454546,14.254611538375013L110.98181818181818,14.295593883662036L111.1090909090909,14.372254953883804L111.23636363636363,14.263406486664172L111.36363636363636,14.205631745210127L111.61818181818181,14.591653090282634L111.74545454545455,14.783526398600829L111.87272727272727,14.524556337512545L112.12727272727273,14.315047818116097L112.25454545454545,14.240729429629791L112.38181818181818,14.337963155507854L112.5090909090909,14.422340845639766L112.63636363636364,14.248235757647972L112.76363636363637,14.528144095562372L113.01818181818182,14.399419229988535L113.14545454545456,14.335886354764392L114.03636363636365,14.451241859186679L114.41818181818182,14.495790833191547L114.54545454545455,14.425911230373105L114.67272727272727,14.397000572904286L114.92727272727272,14.183702936709684L115.18181818181819,14.200977059613273L115.30909090909091,14.17639661391599L115.56363636363636,14.09655957922582L115.81818181818181,14.147317919166364L116.32727272727273,14.135978604711422L116.83636363636364,14.0832710582314L116.96363636363637,14.041369185713044L117.21818181818182,14.423893901764083L117.34545454545454,14.197780868170973L117.47272727272727,14.201886233451647L117.6,14.078281557464367L117.72727272727273,14.121964122091311L118.23636363636365,14.059790444743149L118.36363636363636,14.075242841281804L119.12727272727274,14.199619889832354L119.38181818181819,14.200934826754557L119.50909090909092,14.190761504379571L119.63636363636363,14.246321578736481L119.76363636363637,14.321451941769844L120.01818181818182,14.22812685394929L120.39999999999999,14.101560268640709L120.52727272727273,14.173616027828484L120.9090909090909,14.561481375325332L121.03636363636363,14.345425365740178L121.16363636363637,14.22675404451735L121.41818181818182,14.10964404781592L121.67272727272729,14.027730825368776L122.05454545454546,14.070394053675333L122.43636363636364,14.190542912026034L122.81818181818183,14.420217095981085L122.94545454545454,14.218187539816372L123.07272727272728,14.49504324094726L123.32727272727271,14.280894910304173L123.45454545454545,14.253809478425492L123.58181818181818,14.577395531996666L123.83636363636363,14.640681443537186L123.96363636363637,14.42583226025212L124.0909090909091,14.281162640306334L124.72727272727272,14.363596207870355L125.23636363636363,14.304800136761166L125.36363636363637,14.254450570179493L125.61818181818181,15.356800313098397L125.87272727272726,15.544082426059292L126.12727272727273,15.011721987878584L126.25454545454546,14.74574726781563L126.38181818181818,14.436115151871691L126.50909090909092,14.551118636176355L126.63636363636364,14.528309564984301L126.76363636363635,14.287152660606186L127.01818181818182,14.354169869667416L127.27272727272727,14.199113893288793L127.52727272727273,14.104707181505058L127.90909090909092,14.068617843695403L128.16363636363636,14.039429902131893L128.29090909090908,14.10345095433831L128.4181818181818,14.105548786426741L128.92727272727274,14.155454449239476L129.1818181818182,14.089473799603747L129.3090909090909,14.232822793474044L129.56363636363636,14.270185226236563L129.94545454545454,14.256291132819289L130.45454545454544,14.194513133923445L130.83636363636364,14.188963308374852L131.21818181818182,14.278129514718518L131.34545454545454,14.189116293496264L131.6,14.681092566067566L131.85454545454544,14.524075165876512L132.1090909090909,14.454529054410374L132.74545454545455,14.340859975118468L133,14.295271282658563L133.12727272727273,14.190493889425907L133.25454545454545,14.2091612706309L133.38181818181818,14.170344855998257L133.76363636363635,14.521833993195848L134.52727272727273,14.53266334825258L134.78181818181818,14.613157193392727L134.9090909090909,14.531960905831257L135.03636363636363,14.46611314352366L135.16363636363636,14.284776481008597L135.29090909090908,14.212289282734979L135.79999999999998,14.168796963770804L136.05454545454546,14.100222314075095L136.1818181818182,14.257086831825575L136.6909090909091,14.258024500905034L136.8181818181818,14.556630096631833L136.94545454545454,14.53367126095152L137.07272727272726,14.367790609782535L137.32727272727274,14.29498461358421L137.45454545454547,14.2047088719995L137.5818181818182,14.778146389395854L137.70909090909092,14.963939090991062L137.96363636363637,14.666375746429551L138.34545454545454,14.43165643725524L138.6,14.354543739226449L138.72727272727275,14.342532853790015L138.98181818181817,14.3161415130635L139.10909090909092,15.012183247711185L139.4909090909091,14.883739143297188L139.87272727272727,14.5839990444324L140,14.45554170826509L140.89090909090908,14.364080322546519L141.01818181818183,14.233834133052657L141.14545454545456,14.643516196266976L141.27272727272725,14.485084294123382L141.4,14.363990944392764L141.52727272727273,14.300242399388777L141.65454545454543,14.290767240422717L141.9090909090909,14.334414048500747L142.03636363636366,14.15985306618775L142.16363636363636,14.301772747927503L142.54545454545453,15.701733237432368L142.67272727272726,15.659231018884851L142.8,15.043126464542542L142.92727272727274,14.775552238342318L143.1818181818182,14.591028313871668L143.94545454545454,14.672155561514742L144.07272727272726,14.433754446510386L144.45454545454544,14.320175931602744L145.34545454545454,14.251343882760201L145.72727272727275,14.268965715483981L146.61818181818182,14.470698723706375L146.74545454545452,14.447170763917432L146.87272727272727,14.337129940720715L147.12727272727275,14.479395345161496L147.25454545454545,14.38113226427629L147.38181818181818,14.890168130004373L147.76363636363635,14.979765412204609L147.8909090909091,14.697111168316278L148.14545454545453,14.538480906511587L148.4,14.402881556966134L148.5272727272727,14.435254431909632L148.78181818181818,14.449198637691927L149.03636363636363,14.645982063996845L149.16363636363636,14.885325435649639L149.41818181818184,14.573988535315573L149.6727272727273,14.581771003193111L149.8,14.469961747335638L149.9272727272727,14.454262916972763L150.05454545454546,14.34275835851049L150.43636363636364,14.490306734713139L150.56363636363636,14.40138114212746L150.6909090909091,14.459706697713571L151.07272727272726,14.372058835399438L151.20000000000002,14.30234012824021L152.2181818181818,14.280378653307324L152.60000000000002,14.292554283054702L152.72727272727272,14.319729410265793L152.9818181818182,14.3435688254702L153.23636363636362,14.307858877397903L153.36363636363637,14.689989108728685L153.74545454545455,14.684258200825884L153.87272727272727,14.723983854299387L154.12727272727273,14.62175135122782L154.25454545454545,14.702239854515348L154.38181818181818,14.577187977568434L154.5090909090909,14.81732658928952L154.8909090909091,14.840139686613L155.9090909090909,14.765441082722074L156.16363636363636,14.676087842376424L156.4181818181818,14.549849545858805L156.6727272727273,14.502880535984634L156.8,14.461682025837884L156.9272727272727,14.404076066164947L157.1818181818182,14.895026946303215L157.43636363636364,14.703137577271495L157.56363636363636,14.654462602920182L157.69090909090912,14.501929482745618L158.0727272727273,14.566624599789533L158.2,14.560222652106765L158.3272727272727,14.409758899080781L158.96363636363637,14.31331294202273L159.21818181818182,14.386996028288076L159.34545454545454,14.305822924789567L159.72727272727272,14.383186957846144L159.9818181818182,14.389865878954799L160.74545454545455,14.313712540432054L160.87272727272727,14.635261938257166L161.12727272727273,14.493837029598364L161.3818181818182,14.505587825463783L161.89090909090908,14.435217371386978L162.14545454545456,14.408751962755066L162.39999999999998,14.48810857884063L162.65454545454546,14.480911125850533L162.9090909090909,14.386836311975545L163.16363636363639,14.417408006139548L163.29090909090908,14.32270023170451L163.4181818181818,14.44743982473859L163.54545454545456,14.329757038335652L163.6727272727273,14.348900462414136L164.43636363636364,14.43027310957951L164.56363636363636,14.349604103233165L165.3272727272727,14.798624881068294L165.58181818181816,14.672700426370959L165.83636363636364,15.153492243385491L165.96363636363637,15.868133042722954L166.0909090909091,16.593590636808592L167.23636363636365,15.681851352951428L167.49090909090907,15.15536247189778L167.87272727272725,15.988473676006235L168.25454545454548,15.395517168168048L168.38181818181818,15.572110364547607L168.63636363636365,15.288897066219311L168.76363636363638,15.321091280338763L168.89090909090908,14.924519444311969L169.27272727272725,14.779069198208125L169.4,14.6630250825094L169.65454545454546,14.59339861309018L169.78181818181818,14.59752668924576L169.9090909090909,14.62124316409773L170.29090909090908,14.705359641727163L170.4181818181818,14.485193868426752L170.67272727272726,14.716226165997433L171.6909090909091,14.628743962672871L171.8181818181818,15.010642874743302L171.94545454545457,14.72249029097993L172.07272727272726,14.615372447891664L172.45454545454547,14.533290058530623L172.58181818181816,14.471020274531122L172.70909090909092,14.387754446324351L173.0909090909091,14.352181933418448L173.21818181818182,14.28561940776577L173.34545454545457,14.290900910283275L173.72727272727275,14.230350924317992L175.25454545454545,14.294739559348022L175.63636363636365,14.30391058627106L175.89090909090908,14.29159827275613L176.01818181818183,14.227344642311813L176.27272727272725,14.242918946788675L176.4,14.278300984079918L176.78181818181818,14.266640106709119L177.16363636363636,14.301437898705887L177.29090909090908,14.447014589263675L177.41818181818184,14.446662327372014L177.54545454545453,14.381362202965235L177.67272727272726,14.387401146230312L177.8,14.369784883030727L177.92727272727274,14.367437650047368L178.05454545454543,14.330399450919916L178.3090909090909,14.366415899735435L178.56363636363636,14.319509056102449L178.6909090909091,14.365364428189435L178.94545454545454,14.340117802333463L179.20000000000002,14.338675117100715L179.45454545454544,14.390566108908597L179.5818181818182,14.33331424170837L179.70909090909092,14.427089082398487L179.83636363636361,14.327138997663887L179.96363636363637,14.833789535125776L180.0909090909091,14.770538456664127L181.23636363636362,14.581852339622305L181.36363636363635,14.48577065916794L181.61818181818182,14.653538292864301L181.74545454545452,15.192011806637126L182.25454545454545,14.974509535042653L182.38181818181818,14.771381819775778L182.50909090909093,14.573450892654945L182.76363636363635,14.519099409916883L183.14545454545453,14.504300203782115L183.5272727272727,14.470756351452772L183.78181818181818,14.366356463318695L184.03636363636363,14.39826745180501L184.16363636363636,14.357804796808853L184.41818181818184,14.5562040861882L184.54545454545453,14.48956651657218L184.9272727272727,14.440676509968185L185.05454545454546,14.717604779060652L185.1818181818182,14.622033545472426L185.43636363636364,14.513304082167922L185.56363636363636,14.492603728356999L185.6909090909091,14.445238596631008L185.94545454545454,14.38873048945703L186.07272727272726,14.418544512628458L186.20000000000002,14.487819649682876L186.3272727272727,14.769188357902664L186.45454545454544,15.344990482498602L186.5818181818182,14.940228845403862L187.2181818181818,14.768628335661216L187.34545454545454,14.675257188387322L187.60000000000002,14.545923207814827L188.10909090909092,14.477230284305707L188.23636363636362,14.432589830710343L188.4909090909091,15.354057777973333L189,14.981980775763434L189.25454545454545,15.018407949787308L189.5090909090909,15.012171979902574L189.76363636363635,15.26056943444377L189.8909090909091,15.174598860467187L190.0181818181818,14.93391467334772L190.14545454545456,14.84226076402359L190.4,14.670107988107745L190.78181818181818,14.605867635224946L190.9090909090909,14.59815545738618L191.16363636363636,14.555846717812218L191.2909090909091,14.46605764669404L191.4181818181818,14.458088161830233L191.6727272727273,14.380680118601772L192.1818181818182,14.42262175494965L192.43636363636364,14.407362298135094L192.56363636363636,14.500291884290878L192.8181818181818,15.032917128366691L192.94545454545454,14.939346916066322L193.3272727272727,14.687250300812144L193.45454545454547,14.57847158997683L194.0909090909091,14.42756090694324L194.21818181818182,14.500078885251543L194.34545454545454,14.442874291787936L194.72727272727272,15.330081360626922L194.9818181818182,14.940875777013186L195.1090909090909,14.699129901908526L195.23636363636365,14.689057736835805L195.36363636363637,14.460337555415137L195.4909090909091,14.422454193375993L195.61818181818182,14.349022392898895L196,14.259059354805542L196.3818181818182,14.387330729542635L196.63636363636363,14.43825934594045L197.0181818181818,14.43592641603361L197.14545454545456,14.400269924708654L197.27272727272728,14.315157142437895L197.39999999999998,14.269572238419887L197.9090909090909,14.29497789895664L198.4181818181818,14.295146125201864L198.6727272727273,14.443927711219882L198.79999999999998,14.326964830326453L199.3090909090909,14.428074014855174L199.43636363636364,14.365411390008648L199.8181818181818,14.434700146952402L200.2,14.52766012427021L200.45454545454547,14.486827123439534L200.7090909090909,14.576747993670566L200.83636363636364,14.647145565681956L200.96363636363637,14.505076845441065L201.34545454545454,14.630177085188718L201.6,14.526412730934059L201.72727272727272,14.537465410589437L201.98181818181817,14.507785465307913L202.1090909090909,14.524234231519818L202.23636363636365,14.475864122954956L202.49090909090907,14.499598660763574L202.61818181818182,14.561801407110417L203,14.55801367639729L203.63636363636365,14.691401337857389L205.16363636363639,15.709412055684037L205.29090909090908,16.321588366175956L205.4181818181818,16.675873802088248L205.54545454545456,16.91996203742454L206.05454545454546,17.00132621135456L206.43636363636364,17.031644846145834L206.56363636363636,17.023801818576175L206.8181818181818,17.045130210478803L206.94545454545457,16.840736374748506L207.07272727272726,16.6351963763698L207.2,16.315232949570685L207.70909090909092,15.911540295642427L207.83636363636364,15.548051387415665L207.96363636363634,15.423827270109033L208.21818181818182,15.628832678276801L208.34545454545457,15.676469811275426L208.47272727272727,15.866749845567675L208.72727272727275,15.786333258065058L208.98181818181817,15.35439685475193L209.74545454545455,14.937650143819477L210,14.804762547581296L210.63636363636365,14.550315131123055L210.76363636363635,14.460680628825942L211.9090909090909,15.243474481891033L212.03636363636366,14.74982340423308L212.54545454545453,14.86609642264687L213.05454545454543,14.827604022047497L213.43636363636364,14.599649875140196L213.8181818181818,14.49096641513423L213.94545454545454,14.344225768146766L214.07272727272726,14.382934215007932L214.45454545454544,14.280091387968966L214.5818181818182,14.309508667461772L214.96363636363637,14.281255077350398L215.21818181818182,14.665119363865822L215.34545454545454,15.06124532965607L215.47272727272727,14.944693366253041L216.36363636363635,14.799396076309103L216.4909090909091,14.630683885198215L216.61818181818182,14.493145017456923L216.74545454545452,14.353752208316086L217,14.277654107870013L217.12727272727275,14.395062881891437L217.25454545454545,14.3778066239173L217.38181818181818,14.276329893416584L217.50909090909093,14.336028984927355L217.63636363636363,14.362940974999466L217.76363636363635,14.233150524524405L217.8909090909091,14.342323277278947L218.01818181818183,14.262574224311336L218.4,14.222947317467144L218.65454545454546,14.273852345364745L219.2909090909091,14.266028989334595L219.41818181818184,14.342180606802438L219.54545454545453,14.65645241746728L219.8,14.430497019163697L220.6909090909091,14.320961234786672L220.94545454545454,14.656741144640705L221.5818181818182,14.514943832204201L221.70909090909092,14.384646426833195L222.2181818181818,14.29002617989846L222.47272727272727,14.258603300284097L222.60000000000002,14.22947222788515L222.85454545454544,14.224325748770063L222.9818181818182,14.235628091479828L223.23636363636362,14.362994626916894L223.36363636363637,14.257165350586028L224.12727272727273,14.147075640921809L224.25454545454545,14.236551864373913L224.38181818181818,14.362863950755395L225.0181818181818,14.24954935985074L225.14545454545456,14.228834442910971L226.2909090909091,14.241073067556275L226.4181818181818,14.181269409217101L226.8,14.220071632378387L227.05454545454546,14.233760561542793L227.30909090909088,14.592085330209455L227.56363636363636,14.48368792858385L227.8181818181818,14.404947443488325L228.2,14.259724285413673L228.3272727272727,14.406229557474203L228.5818181818182,14.232404525666842L228.7090909090909,14.229513073089572L228.96363636363637,14.228463141441225L229.21818181818182,14.149039124899588L229.34545454545454,14.306931607580879L229.6,14.245452108041L229.72727272727272,14.146215400637239L230.23636363636365,14.403212993880121L230.36363636363637,14.225111822165903L230.61818181818182,14.533454543737813L230.74545454545455,14.37108852510483L230.87272727272727,14.326425516872602L231,14.278388082774674L231.3818181818182,14.192696133819815L231.5090909090909,14.208427797573298L231.63636363636363,14.292547967829478L232.14545454545456,14.255321793756865L232.39999999999998,14.257650417961806L232.52727272727273,14.194643765110962L232.65454545454546,14.186986867393406L232.9090909090909,14.378343970476212L233.16363636363639,14.399977190755054L233.4181818181818,14.394460499516311L233.6727272727273,14.292486677857823L233.79999999999998,14.256654899569826L233.92727272727274,14.252282576207122L234.18181818181816,14.15853620647327L234.3090909090909,14.146822462644106L234.43636363636364,14.339173403710461L234.56363636363636,14.196280472796445L234.6909090909091,14.283889693167428L234.8181818181818,14.314530656333421L235.0727272727273,14.236306247011683L235.2,14.201707011903554L235.58181818181816,14.150800376845684L235.7090909090909,14.38883723599512L235.96363636363637,14.35968425236132L236.0909090909091,14.457298072808461L236.4727272727273,14.337726806871478L236.6,14.305038606136621L236.72727272727272,14.250480766256223L236.85454545454547,14.19924943892196L237.23636363636365,14.228116644448747L237.74545454545455,14.502370583522657L238,14.301736365722169L238.12727272727273,14.445823789677496L238.25454545454548,14.44800266731425L238.63636363636365,14.394498571254816L238.76363636363638,14.409669951222252L239.01818181818183,14.29133500425102L239.52727272727273,14.218279216374407L239.65454545454546,14.325181213613227L239.78181818181818,14.219402132527021L239.9090909090909,14.234043801529944L240.16363636363639,14.184589434639717L240.67272727272726,14.189858487784377L240.79999999999998,14.321830820579423L241.05454545454546,14.475695392260574L241.1818181818182,14.416593725406436L241.3090909090909,14.378392965702039L241.43636363636364,14.54731735836552L241.6909090909091,14.584953106487772L242.07272727272726,14.605476489506541L242.2,14.4067641075277L242.32727272727274,14.351255565816178L242.45454545454547,14.406336903074259L242.58181818181816,14.343461658105731L242.96363636363634,14.316698795652906L243.0909090909091,14.242404956049866L243.72727272727275,14.270455004598215L243.98181818181817,14.205066276684734L244.10909090909092,14.242569031634666L244.23636363636365,14.180112167970197L244.74545454545455,14.243356676380738L245.12727272727273,14.293635545751286L245.38181818181818,14.366282125690859L245.76363636363635,14.259137849850427L245.89090909090908,14.240070302255281L246.01818181818183,14.345105264121543L246.14545454545456,14.323167724606854L246.27272727272725,14.24011860817981L246.52727272727273,14.374596401771228L246.78181818181818,14.346345172541138L247.16363636363636,14.304041920295978L247.29090909090908,14.216995901167L247.54545454545453,14.214785133045197L247.67272727272726,14.208664092886297L247.8,14.255690005883896L248.1818181818182,14.460675232091761L248.43636363636364,14.400047290427395L248.56363636363636,14.286246347672112L248.6909090909091,14.22276360746544L248.8181818181818,14.232632740842453L249.70909090909092,14.372159701062737L249.83636363636361,14.235942000570454L250.21818181818182,14.139139456358937L250.85454545454544,14.505165573106188L251.36363636363635,14.796037715668765L251.61818181818182,14.48204628439769L252.12727272727275,14.429996665421063L252.25454545454545,14.757789016198107L252.50909090909093,14.623534578800326L253.01818181818183,14.42102366059385L253.14545454545453,14.352958652515456L253.27272727272728,14.526574005109056L253.5272727272727,14.661575250556206L253.65454545454546,14.69941179960929L253.78181818181818,14.648117496935003L254.2909090909091,14.614601155738493L254.54545454545453,14.504050069041732L254.8,14.392500399114533L255.05454545454546,14.697606577382812L255.1818181818182,14.44217241089079L255.43636363636364,14.35537380422395L255.94545454545454,14.284109830759192L256.2,14.396196556033038L256.3272727272727,14.56279409184995L256.70909090909095,14.340045290412476L257.0909090909091,14.362610998698653L257.6,14.333671165353108L257.8545454545455,14.275197886824541L257.9818181818182,14.39290420936619L258.3636363636364,14.228518956189887L258.8727272727273,14.29638013806307L259,14.27406289960912L259.1272727272727,14.273689660758961L259.6363636363636,14.38103698919854L259.76363636363635,14.36391156911772L259.8909090909091,14.416670264647102L260.1454545454545,15.097164827309856L260.27272727272725,14.87786184872096L260.40000000000003,14.731208137651494L260.6545454545454,14.523312474935906L260.7818181818182,14.473941189208675L261.1636363636364,14.390876874926809L261.2909090909091,14.34514792574556L261.54545454545456,14.292361287690339L261.8,14.217525106642015L261.92727272727274,14.32678356746772L262.05454545454546,14.32313699114289L262.94545454545454,14.359318664277312L263.07272727272726,15.007942444446531L263.2,14.728407617840261L263.3272727272727,14.67921703199377L264.0909090909091,14.568853803239328L264.2181818181818,14.554022589138247L264.3454545454546,14.9048309227386L264.4727272727273,14.66379769906296L264.59999999999997,14.665118655536551L264.8545454545455,14.739907461526833L265.23636363636365,14.54566205903188L265.6181818181818,14.394169898095427L266.1272727272727,14.724645731376455L266.25454545454545,14.846191993486379L266.3818181818182,14.610802658003545L266.5090909090909,14.535342763883595L267.0181818181818,14.687391195081537L25.709090909090907,19.19839133821897L26.090909090909093,123.65121940376146L26.21818181818182,149.3158213096505L26.6,127.05257785397949L26.727272727272727,165.7674666941241L26.854545454545452,213.829178415358L26.98181818181818,217.4277867956372L27.10909090909091,167.4814215801512L27.49090909090909,176.07620238492402L27.618181818181817,217.91259897579764L28.636363636363637,211.99630254599353L29.01818181818182,172.3515275859868L29.27272727272727,217.12833124615807L29.4,212.18920331039556L29.527272727272727,157.1896673894391L29.781818181818185,125.4068340812007L29.909090909090907,158.47127924607548L30.036363636363635,209.004261870202L30.290909090909093,169.16956120304033L30.41818181818182,108.91965074925831L31.054545454545455,124.29540864935734L31.30909090909091,85.3721563761261L31.436363636363637,104.4010036655699L31.690909090909088,174.4911304248739L32.07272727272727,110.86911473610672L32.32727272727273,156.86167381781922L32.45454545454545,208.472899831956L32.58181818181818,213.39590276063086L32.836363636363636,133.87186165504627L33.09090909090909,156.83126424555076L33.21818181818182,206.6227125390003L34.236363636363635,200.56061932939323L34.49090909090909,128.44816544948836L35.127272727272725,106.1454990730307L35.63636363636363,177.723698115042L35.76363636363636,200.84658061192513L35.89090909090909,163.35671909930113L36.018181818181816,105.18310454976717L37.54545454545455,85.8060720908633L37.800000000000004,90.71731418978196L38.05454545454545,168.75642262327824L38.309090909090905,136.5435253379739L38.43636363636364,87.65400982441335L38.56363636363636,78.57117835514534L38.69090909090909,124.56645010885195L38.81818181818182,187.50440676152513L39.07272727272728,177.05117596667108L39.2,115.66243704614926L39.32727272727272,84.82409606619642L39.45454545454545,113.21167416695062L39.58181818181818,174.91949749139772L39.836363636363636,170.15206706566158L39.96363636363636,119.24769141332601L40.09090909090909,79.9664437416571L40.34545454545455,145.4495684191076L40.599999999999994,167.4046726561434L40.981818181818184,133.18980965604692L41.36363636363637,173.37208975492717L41.618181818181824,110.96001545594491L41.74545454545454,87.21487991997033L42,162.89161984592658L42.38181818181818,110.31745287368378L42.63636363636364,121.28546954653163L42.763636363636365,175.7271836844772L43.018181818181816,177.76407936545505L43.27272727272727,113.18078163005747L43.4,108.0372898136615L43.52727272727273,156.74228723881572L43.78181818181818,180.69485658704917L43.909090909090914,142.85048550545977L44.29090909090909,164.0441409846166L44.54545454545455,197.267446179116L44.67272727272727,167.2587663919199L45.69090909090909,109.09526368139382L45.81818181818182,113.41461322401878L46.07272727272728,181.2443720423414L46.709090909090904,198.59684792134038L47.345454545454544,140.47113555149267L47.472727272727276,155.67143927408569L47.6,204.31171629204798L47.85454545454545,191.7298633360499L47.98181818181818,127.15072172122386L48.236363636363635,132.34648714940522L48.49090909090909,190.31616720064332L48.872727272727275,120.91110513327216L49,113.57683235972203L49.38181818181818,153.9515429356456L49.50909090909091,125.95637941288894L50.14545454545454,173.73455951721084L50.4,112.98017472461461L50.78181818181818,175.7199198574574" style="fill: none;" fill="none"></path></g></g></g></g><g opacity="0.2"><g><g><g><path stroke="rgb(255, 112, 67)" stroke-width="2px" d="M26.090909090909093,32.907617651499244L26.21818181818182,27.277362997715297L26.727272727272727,21.950283518204333L26.854545454545452,20.417251687783466L27.10909090909091,19.593351767613356L27.236363636363638,18.896214420978847L27.363636363636363,18.76260244846346L27.745454545454546,17.74172549981338L27.872727272727275,17.469380736351034L28,17.21073477084822L28.50909090909091,16.44849567229933L29.654545454545456,16.366278538337127L29.781818181818185,16.25151864381938L30.036363636363635,16.06995276304393L30.545454545454543,15.679415290172297L30.8,16.194986756031337L31.054545454545455,15.557797881273139L31.18181818181818,15.670845426045942L31.436363636363637,16.097358474364654L31.690909090909088,15.461873833949763L31.818181818181817,15.91750494333415L32.2,15.472156047821064L32.32727272727273,16.037401887086737L32.45454545454545,15.845561907841628L32.58181818181818,15.15526584478526L32.70909090909091,15.271746204449599L33.09090909090909,15.035368901032673L33.21818181818182,15.3847937492224L33.472727272727276,15.043930649757405L33.72727272727273,15.15526584478526L33.85454545454545,14.93773250396437L33.981818181818184,14.944581902944135L34.10909090909091,14.79727924787082L34.49090909090909,14.879496381833022L34.61818181818182,15.110736636015089L34.74545454545454,14.886345780812787L34.872727272727275,14.773298236039984L35.509090909090915,14.939444853709315L36.14545454545455,14.704779900037336L36.27272727272727,14.73389796110301L36.4,14.884633431067842L36.52727272727273,14.454695683259235L36.654545454545456,14.718486813398512L36.78181818181819,14.718486813398512L37.41818181818182,14.646543777905988L38.43636363636364,14.600294103989246L38.81818181818182,14.49923300743105L38.945454545454545,14.482101394579981L39.836363636363636,14.538633282368005L40.21818181818182,14.425577622193561L40.47272727272727,14.432427021173346L40.599999999999994,14.40502130985262L40.72727272727273,14.8383837571511L41.236363636363635,14.310817727675813L41.36363636363637,14.740747360082777L41.49090909090909,14.341648138486432L41.87272727272727,14.357067401592554L42,14.446133934534522L42.89090909090909,14.178926220306995L43.14545454545454,14.297110814314637L43.4,14.357067401592554L43.52727272727273,14.422152922703688L43.654545454545456,14.406741774999189L43.78181818181818,14.339935788741487L44.29090909090909,14.564326643943806L44.54545454545455,14.425577622193561L44.92727272727273,14.566038993688734L45.054545454545455,14.069295259622443L45.18181818181819,14.346785187721272L45.43636363636363,14.355355051847608L45.56363636363636,14.30053551380453L45.69090909090909,14.362204450827393L46.07272727272728,14.417015873468848L46.32727272727273,14.182350919796889L46.45454545454546,14.418728223213794L46.709090909090904,14.393034861638014L46.836363636363636,14.27484215222873L47.21818181818182,14.16008225771098L47.85454545454545,14.213181330607508L47.98181818181818,14.413591173978956L48.10909090909091,14.547195031092738L48.36363636363637,14.3484975374662L48.74545454545455,14.218318379842328L49,14.288549065589924L49.127272727272725,14.211468980862563L49.38181818181818,14.423865272448634L49.63636363636364,14.14980815924132L49.763636363636365,14.290261415334852L50.654545454545456,14.14980815924132L51.67272727272727,14.420440572958741L51.8,14.038464848811824L51.92727272727273,14.24914879065295L52.43636363636364,14.24914879065295L52.81818181818181,14.172068705925586L53.2,14.077865123748799L53.32727272727273,14.293686114824744L53.709090909090904,14.069295259622443L53.836363636363636,14.13952594537002L54.090909090909086,14.552332080327558L54.21818181818182,14.115544933539185L54.345454545454544,14.06073351089773L54.6,14.173789171072157L54.98181818181818,14.130964196645307L55.10909090909091,14.235449992693397L55.236363636363635,14.240587041928237L55.61818181818182,14.374190899041999L56,14.362204450827393L56.63636363636363,14.038464848811824L56.89090909090909,14.339935788741487L57.14545454545455,14.000785039021437L57.27272727272727,14.283412016355085L57.90909090909091,14.403308960107672L58.290909090909096,14.339935788741487L58.41818181818182,14.069295259622443L58.54545454545454,14.214893680352436L58.67272727272727,14.74418017497431L58.92727272727272,14.225175894223737L59.43636363636364,14.062445860642658L59.690909090909095,14.194337368011494L59.945454545454545,14.305680678440993L60.199999999999996,14.64996847739588L60.83636363636364,14.396459561127887L61.090909090909086,14.16008225771098L61.6,14.024766050852271L62.236363636363635,14.011059137491095L62.49090909090909,14.036752499066877L62.61818181818182,14.141238295114967L63.25454545454546,14.043610013448285L63.381818181818176,14.24401174141811L63.50909090909091,15.316283528621394L63.763636363636365,14.094988621198224L63.89090909090909,14.182350919796889L64.01818181818182,14.081289823238672L64.52727272727273,14.351922236956092L64.65454545454546,14.127539497155414L64.9090909090909,14.3484975374662L65.2909090909091,14.267992753248963L65.8,14.113832583794238L65.92727272727272,14.225175894223737L66.05454545454545,14.113832583794238L66.18181818181819,14.091563921708332L66.43636363636364,14.196049717756422L66.81818181818183,14.105270835069526L66.94545454545455,14.429002321683454L67.07272727272726,14.101846135579633L67.45454545454545,14.622562766075154L67.58181818181818,14.117257283284133L67.83636363636364,14.136101245880146L68.6,14.115544933539185L68.85454545454546,14.089851571963404L69.23636363636363,14.050459412428053L69.36363636363637,14.286836715844977L69.61818181818181,14.476964345345142L69.74545454545455,14.552332080327558L70.38181818181818,14.062445860642658L70.50909090909092,14.48895890896139L70.76363636363637,14.401596610362727L71.01818181818183,14.500945357175977L71.14545454545454,14.122402447920594L71.27272727272727,14.237162342438342L71.65454545454546,14.267992753248963L72.16363636363637,14.16521930694582L72.2909090909091,14.293686114824744L72.54545454545455,14.566038993688734L72.67272727272727,14.26456805375907L72.92727272727272,16.46391493540545L73.43636363636364,14.052171762172998L73.56363636363638,14.55575677981745L73.69090909090909,14.25943100452425L73.94545454545455,14.007634438001203L74.07272727272726,15.177534506871169L74.58181818181818,14.410166474489081L74.70909090909092,14.096709086344813L74.83636363636364,14.223455429077168L75.0909090909091,14.124114797665541L75.21818181818182,14.247436440908002L75.34545454545454,14.146375344349806L75.47272727272727,14.13952594537002L76.61818181818181,14.786997033999537L76.74545454545455,13.937403752253626L77.38181818181818,14.168644006435693L78.27272727272727,14.387897812403175L78.4,13.985365775915296L78.9090909090909,14.276554501973676L79.03636363636365,14.16521930694582L79.16363636363636,14.297110814314637L79.41818181818182,14.15494520847616L79.67272727272727,14.245724091163057L80.18181818181819,14.518076970027064L81.32727272727273,14.22860059371363L81.45454545454545,14.516364620282118L81.58181818181819,14.451270983769362L81.7090909090909,14.007634438001203L82.09090909090908,14.045322363193232L82.47272727272727,14.211468980862563L82.85454545454544,14.130964196645307L83.74545454545454,14.350209887211145L83.87272727272727,14.100133785834688L84,14.423865272448634L84.12727272727274,14.13952594537002L84.38181818181819,13.987078125660242L84.50909090909092,14.250861140397895L84.89090909090909,16.415952911743762L85.01818181818182,14.324516525635364L85.14545454545454,14.187487969031709L85.39999999999999,14.917176191623408L85.65454545454546,14.218318379842328L85.78181818181818,14.466690246875483L86.29090909090908,14.74418017497431L87.18181818181817,14.204619581882776L87.56363636363636,14.180638570051942L87.69090909090909,14.192625018266547L87.94545454545454,14.012771487236042L88.2,14.168644006435693L88.58181818181818,14.632836864544814L89.98181818181818,13.918567905059236L90.36363636363637,14.415303523723901L90.49090909090908,14.223455429077168L90.61818181818181,14.1343888961352L90.87272727272726,14.285124366100032L91.12727272727273,14.27484215222873L91.25454545454546,14.101846135579633L91.50909090909092,14.161794607455928L92.14545454545456,14.25429395528941L92.27272727272727,14.028190750342164L93.03636363636363,14.13952594537002L93.2909090909091,14.216606030097383L93.41818181818181,14.084714522728564L93.54545454545455,14.083002172983619L93.67272727272727,14.16521930694582L93.80000000000001,14.067582909877498L93.92727272727272,14.610568202458905L94.05454545454546,14.079577473493726L94.18181818181819,14.050459412428053L94.3090909090909,14.182350919796889L94.43636363636364,14.194337368011494L94.69090909090909,14.043610013448285L95.07272727272728,14.250861140397895L95.2,14.100133785834688L95.32727272727273,14.069295259622443L95.58181818181818,14.175501520817102L96.0909090909091,14.024766050852271L96.34545454545456,14.240587041928237L96.6,14.17721387056205L97.10909090909091,14.028190750342164L97.23636363636363,14.180638570051942L97.36363636363636,13.995647989786598L97.61818181818182,14.178926220306995L97.87272727272727,13.973379327700709L98.12727272727273,14.077865123748799L98.38181818181819,13.964809463574355L98.5090909090909,13.90486099169806L98.8909090909091,14.297110814314637L99.14545454545454,14.708204599527228L99.27272727272728,14.367341500062214L99.39999999999999,14.636261564034687L99.52727272727273,14.130964196645307L99.65454545454546,14.321091826145471L99.78181818181818,14.01448383698097L100.03636363636365,14.13952594537002L100.16363636363636,14.026478400597217L100.8,14.019629001617451L100.92727272727274,14.09842143608974L101.18181818181819,14.036752499066877L101.30909090909091,14.209756631117616L101.43636363636362,13.978516376935529L101.81818181818183,14.084714522728564L102.07272727272728,13.99393564004165L102.32727272727273,13.927129653783949L102.58181818181819,14.043610013448285L102.83636363636363,13.963097113829408L103.0909090909091,15.511548207356398L103.21818181818182,14.06587056013255L103.34545454545454,14.285124366100032L103.72727272727273,14.052171762172998L104.23636363636363,14.658530226120593L104.36363636363637,14.089851571963404L104.61818181818182,14.089851571963404L105,13.968242278465869L105.50909090909092,13.975091677445636L106.14545454545454,14.136101245880146L107.03636363636363,14.146375344349806L107.16363636363637,14.225175894223737L107.41818181818181,14.053884111917945L107.54545454545455,14.435859836064862L107.67272727272727,14.209756631117616L107.8,14.574600742413466L107.92727272727272,14.106983184814473L108.05454545454546,14.156657558221088L108.30909090909091,14.084714522728564L108.43636363636364,14.365629150317286L108.94545454545455,14.84352080638594L109.07272727272726,14.319379476400526L109.58181818181818,14.005922088256257L109.96363636363635,14.132676546390254L110.21818181818182,14.209756631117616L110.34545454545454,14.14466299460486L110.47272727272727,14.132676546390254L110.85454545454546,14.393034861638014L110.98181818181818,14.357067401592554L111.1090909090909,14.487246559216445L111.23636363636363,14.100133785834688L111.36363636363636,14.118969633029078L111.61818181818181,15.170685107891382L111.74545454545455,15.071336361078131L111.87272727272727,14.136101245880146L112.12727272727273,14.000785039021437L112.25454545454545,14.129251846900361L112.38181818181818,14.483813744324909L112.5090909090909,14.548907380837665L112.63636363636364,13.987078125660242L112.76363636363637,14.948006602434027L113.01818181818182,14.206331931627723L113.14545454545456,14.240587041928237L114.03636363636365,14.624275115820081L114.41818181818182,14.562614294198859L114.54545454545455,14.321091826145471L114.67272727272727,14.353634586701038L114.92727272727272,13.86375648241778L115.18181818181819,14.226888243968684L115.30909090909091,14.13952594537002L115.56363636363636,13.976804027190584L115.81818181818181,14.223455429077168L116.32727272727273,14.118969633029078L116.83636363636364,14.00420973851131L116.96363636363637,13.978516376935529L117.21818181818182,14.997680975840662L117.34545454545454,13.858611317781317L117.47272727272727,14.208044281372668L117.6,13.892874543483455L117.72727272727273,14.187487969031709L118.23636363636365,13.966529928720924L118.36363636363636,14.09842143608974L119.12727272727274,14.386185462658228L119.38181818181819,14.20290723213783L119.50909090909092,14.175501520817102L119.63636363636363,14.329661690271827L119.76363636363637,14.434147486319917L120.01818181818182,14.088139222218459L120.39999999999999,13.911710390677827L120.52727272727273,14.28169966661014L120.9090909090909,15.143279396570655L121.03636363636363,14.021341351362379L121.16363636363637,14.048747062683125L121.41818181818182,13.933979052763734L121.67272727272729,13.90486099169806L122.05454545454546,14.1343888961352L122.43636363636364,14.370766199552106L122.81818181818183,14.76472837191363L122.94545454545454,13.915143205569361L123.07272727272728,14.910326792643641L123.32727272727271,13.959672414339515L123.45454545454545,14.213181330607508L123.58181818181818,15.062774612353419L123.83636363636363,14.735610310847957L123.96363636363637,14.10355848532458L124.0909090909091,14.064158210387605L124.72727272727272,14.487246559216445L125.23636363636363,14.216606030097383L125.36363636363637,14.178926220306995L125.61818181818181,17.010324927476752L125.87272727272726,15.825005595500667L126.12727272727273,14.213181330607508L126.25454545454546,14.346785187721272L126.38181818181818,13.971666977955763L126.50909090909092,14.72362386263335L126.63636363636364,14.49409595819621L126.76363636363635,13.925417304039021L127.01818181818182,14.454695683259235L127.27272727272727,13.966529928720924L127.52727272727273,13.963097113829408L127.90909090909092,14.01448383698097L128.16363636363636,13.995647989786598L128.29090909090908,14.199482532647956L128.4181818181818,14.1086955345594L128.92727272727274,14.230312943458577L129.1818181818182,13.990502825150134L129.3090909090909,14.447846284279468L129.56363636363636,14.32622887538031L129.94545454545454,14.235449992693397L130.45454545454544,14.101846135579633L130.83636363636364,14.180638570051942L131.21818181818182,14.411878824234028L131.34545454545454,14.05559646166289L131.6,15.419056974924537L131.85454545454544,14.288549065589924L132.1090909090909,14.350209887211145L132.74545454545455,14.17035635618064L133,14.226888243968684L133.12727272727273,14.033327799576984L133.25454545454545,14.237162342438342L133.38181818181818,14.112120234049293L133.76363636363635,15.049067698992225L134.52727272727273,14.548907380837665L134.78181818181818,14.73389796110301L134.9090909090909,14.410166474489081L135.03636363636363,14.367341500062214L135.16363636363636,14.012771487236042L135.29090909090908,14.10355848532458L135.79999999999998,14.10355848532458L136.05454545454546,13.997360339531543L136.1818181818182,14.492383608451265L136.6909090909091,14.25943100452425L136.8181818181818,15.004538490222071L136.94545454545454,14.49923300743105L137.07272727272726,14.118969633029078L137.32727272727274,14.185775619286762L137.45454545454547,14.069295259622443L137.5818181818182,15.638302665490375L137.70909090909092,15.242628143383925L137.96363636363637,14.220030729587275L138.34545454545454,14.079577473493726L138.6,14.23887469218329L138.72727272727275,14.324516525635364L138.98181818181817,14.276554501973676L139.10909090909092,16.056245849682753L139.4909090909091,14.691072986676161L139.87272727272727,14.1343888961352L140,14.262855704014124L140.89090909090908,14.226888243968684L141.01818181818183,14.038464848811824L141.14545454545456,15.258039291088403L141.27272727272725,14.247436440908002L141.4,14.182350919796889L141.52727272727273,14.204619581882776L141.65454545454543,14.276554501973676L141.9090909090909,14.39988426061778L142.03636363636366,13.898011592718275L142.16363636363636,14.514652270537171L142.54545454545453,17.801673971689674L142.67272727272726,15.595477691063525L142.8,14.118969633029078L142.92727272727274,14.374190899041999L143.1818181818182,14.314242427165706L143.94545454545454,14.793846432979304L144.07272727272726,14.076152774003852L144.45454545454544,14.14980815924132L145.34545454545454,14.148095809496375L145.72727272727275,14.29539846456969L146.61818181818182,14.773298236039984L146.74545454545452,14.411878824234028L146.87272727272727,14.172068705925586L147.12727272727275,14.69279345182273L147.25454545454545,14.23373764294845L147.38181818181818,15.653721928596516L147.76363636363635,15.114161335504981L147.8909090909091,14.273129802483783L148.14545454545453,14.30053551380453L148.4,14.199482532647956L148.5272727272727,14.483813744324909L148.78181818181818,14.470114946365376L149.03636363636363,14.941157203454242L149.16363636363636,15.24434049312887L149.41818181818184,14.106983184814473L149.6727272727273,14.59344470500948L149.8,14.302247863549457L149.9272727272727,14.430714671428401L150.05454545454546,14.175501520817102L150.43636363636364,14.711629299017103L150.56363636363636,14.267992753248963L150.6909090909091,14.547195031092738L151.07272727272726,14.240587041928237L151.20000000000002,14.197762067501367L152.2181818181818,14.247436440908002L152.60000000000002,14.310817727675813L152.72727272727272,14.360492101082446L152.9818181818182,14.379327948276819L153.23636363636362,14.25429395528941L153.36363636363637,15.263184455724867L153.74545454545455,14.675661838971662L153.87272727272727,14.783572334509644L154.12727272727273,14.468402596620429L154.25454545454545,14.82297260944662L154.38181818181818,14.38961016214812L154.5090909090909,15.177534506871169L154.8909090909091,14.874359332598182L155.9090909090909,14.653393176885755L156.16363636363636,14.542057981857898L156.4181818181818,14.360492101082446L156.6727272727273,14.432427021173346L156.8,14.39988426061778L156.9272727272727,14.317667126655598L157.1818181818182,15.631453266510608L157.43636363636364,14.415303523723901L157.56363636363636,14.581450141393232L157.69090909090912,14.273129802483783L158.0727272727273,14.663667275355433L158.2,14.550619730582612L158.3272727272727,14.184063269541834L158.96363636363637,14.168644006435693L159.21818181818182,14.497520657686103L159.34545454545454,14.184063269541834L159.72727272727272,14.49923300743105L159.9818181818182,14.39988426061778L160.74545454545455,14.199482532647956L160.87272727272727,15.117586034994874L161.12727272727273,14.28169966661014L161.3818181818182,14.523214019261884L161.89090909090908,14.329661690271827L162.14545454545456,14.36905384980716L162.39999999999998,14.607143502969013L162.65454545454546,14.470114946365376L162.9090909090909,14.245724091163057L163.16363636363639,14.463265547385591L163.29090909090908,14.180638570051942L163.4181818181818,14.634549214289759L163.54545454545456,14.153232858731215L163.6727272727273,14.377615598531873L164.43636363636364,14.552332080327558L164.56363636363636,14.22860059371363L165.3272727272727,15.472156047821064L165.58181818181816,14.483813744324909L165.83636363636364,15.874679968907301L165.96363636363637,16.940094241729156L166.0909090909091,17.681777027937084L167.23636363636365,14.314242427165706L167.49090909090907,14.365629150317286L167.87272727272725,17.238140482168948L168.25454545454548,14.506082406410815L168.38181818181818,15.837000159116895L168.63636363636365,14.86407711872688L168.76363636363638,15.369382601517902L168.89090909090908,14.329661690271827L169.27272727272725,14.56089382905227L169.4,14.48895890896139L169.65454545454546,14.48895890896139L169.78181818181818,14.60371880347914L169.9090909090909,14.656817876375648L170.29090909090908,14.831534358171332L170.4181818181818,14.15494520847616L170.67272727272726,15.062774612353419L171.6909090909091,14.497520657686103L171.8181818181818,15.58349124284892L171.94545454545457,14.290261415334852L172.07272727272726,14.454695683259235L172.45454545454547,14.410166474489081L172.58181818181816,14.377615598531873L172.70909090909092,14.262855704014124L173.0909090909091,14.298823164059584L173.21818181818182,14.185775619286762L173.34545454545457,14.298823164059584L173.72727272727275,14.13952594537002L175.25454545454545,14.391322511893067L175.63636363636365,14.317667126655598L175.89090909090908,14.273129802483783L176.01818181818183,14.130964196645307L176.27272727272725,14.266280403504016L176.4,14.331374040016772L176.78181818181818,14.24914879065295L177.16363636363636,14.353634586701038L177.29090909090908,14.66537962510036L177.41818181818184,14.446133934534522L177.54545454545453,14.283412016355085L177.67272727272726,14.396459561127887L177.8,14.34336048823138L177.92727272727274,14.36391680057234L178.05454545454543,14.27484215222873L178.3090909090909,14.420440572958741L178.56363636363636,14.24914879065295L178.6909090909091,14.434147486319917L178.94545454545454,14.302247863549457L179.20000000000002,14.336511089251612L179.45454545454544,14.468402596620429L179.5818181818182,14.247436440908002L179.70909090909092,14.56775134343368L179.83636363636361,14.17721387056205L179.96363636363637,15.59376534131858L180.0909090909091,14.675661838971662L181.23636363636362,14.298823164059584L181.36363636363635,14.341648138486432L181.61818181818182,14.905189743408801L181.74545454545452,15.99972207729635L182.25454545454545,14.648256127650935L182.38181818181818,14.466690246875483L182.50909090909093,14.276554501973676L182.76363636363635,14.43757218580981L183.14545454545453,14.482101394579981L183.5272727272727,14.420440572958741L183.78181818181818,14.209756631117616L184.03636363636363,14.446133934534522L184.16363636363636,14.297110814314637L184.41818181818184,14.85380302025722L184.54545454545453,14.38961016214812L184.9272727272727,14.367341500062214L185.05454545454546,15.132997182699354L185.1818181818182,14.478676695090089L185.43636363636364,14.350209887211145L185.56363636363636,14.461553197640644L185.6909090909091,14.374190899041999L185.94545454545454,14.303968328696046L186.07272727272726,14.463265547385591L186.20000000000002,14.591732355264533L186.3272727272727,15.191241420232343L186.45454545454544,16.20869366939253L186.5818181818182,14.33308638976172L187.2181818181818,14.511227571047279L187.34545454545454,14.53520046747649L187.60000000000002,14.351922236956092L188.10909090909092,14.374190899041999L188.23636363636362,14.365629150317286L188.4909090909091,16.73625969886782L189,14.423865272448634L189.25454545454545,15.073048710823079L189.5090909090909,15.002818025075483L189.76363636363635,15.633165616255555L189.8909090909091,15.045642999502332L190.0181818181818,14.572888392668519L190.14545454545456,14.704779900037336L190.4,14.411878824234028L190.78181818181818,14.50950710590071L190.9090909090909,14.586587190628071L191.16363636363636,14.492383608451265L191.2909090909091,14.331374040016772L191.4181818181818,14.446133934534522L191.6727272727273,14.26456805375907L192.1818181818182,14.485534209471497L192.43636363636364,14.384473112913282L192.56363636363636,14.63968626352458L192.8181818181818,15.831854994480432L192.94545454545454,14.798991597615766L193.3272727272727,14.309105377930866L193.45454545454547,14.415303523723901L194.0909090909091,14.201194882392903L194.21818181818182,14.60885585271396L194.34545454545454,14.357067401592554L194.72727272727272,16.6608919638854L194.9818181818182,14.357067401592554L195.1090909090909,14.336511089251612L195.23636363636365,14.673949489226716L195.36363636363637,14.117257283284133L195.4909090909091,14.365629150317286L195.61818181818182,14.23887469218329L196,14.124114797665541L196.3818181818182,14.579737791648286L196.63636363636363,14.514652270537171L197.0181818181818,14.432427021173346L197.14545454545456,14.346785187721272L197.27272727272728,14.187487969031709L197.39999999999998,14.201194882392903L197.9090909090909,14.33308638976172L198.4181818181818,14.29539846456969L198.6727272727273,14.667100090246949L198.79999999999998,14.151520508986268L199.3090909090909,14.579737791648286L199.43636363636364,14.271417452738856L199.8181818181818,14.538633282368005L200.2,14.667100090246949L200.45454545454547,14.425577622193561L200.7090909090909,14.711629299017103L200.83636363636364,14.752741923699023L200.96363636363637,14.291973765079797L201.34545454545454,14.817827444810138L201.6,14.370766199552106L201.72727272727272,14.554044430072505L201.98181818181817,14.463265547385591L202.1090909090909,14.548907380837665L202.23636363636365,14.403308960107672L202.49090909090907,14.53520046747649L202.61818181818182,14.6551055266307L203,14.552332080327558L203.63636363636365,14.891482830047627L205.16363636363639,17.236428132424L205.29090909090908,17.239852831913893L205.4181818181818,17.207301955956684L205.54545454545456,17.286094390428993L206.05454545454546,17.123372472249557L206.43636363636364,17.077122798332812L206.56363636363636,17.0120372772217L206.8181818181818,17.077122798332812L206.94545454545457,16.534145621153026L207.07272727272726,16.326886378801795L207.2,15.835287809371968L207.70909090909092,15.306001314750093L207.83636363636364,15.002818025075483L207.96363636363634,15.237491094149085L208.21818181818182,15.936340790528522L208.34545454545457,15.747925510773303L208.47272727272727,16.15216989700613L208.72727272727275,15.665708376811121L208.98181818181817,14.706492249782283L209.74545454545455,14.312530077420758L210,14.605431153224085L210.63636363636365,14.168644006435693L210.76363636363635,14.32622887538031L211.9090909090909,16.41766526148871L212.03636363636366,14.00934678774615L212.54545454545453,15.040505950267512L213.05454545454543,14.76986542114845L213.43636363636364,14.257718654779303L213.8181818181818,14.327941225125258L213.94545454545454,14.124114797665541L214.07272727272726,14.440996885299702L214.45454545454544,14.125827147410487L214.5818181818182,14.353634586701038L214.96363636363637,14.23887469218329L215.21818181818182,15.240915793638978L215.34545454545454,15.655434278341444L215.47272727272727,14.76986542114845L216.36363636363635,14.581450141393232L216.4909090909091,14.377615598531873L216.61818181818182,14.286836715844977L216.74545454545452,14.14466299460486L217,14.163506957200873L217.12727272727275,14.571176042923572L217.25454545454545,14.351922236956092L217.38181818181818,14.124114797665541L217.50909090909093,14.425577622193561L217.63636363636363,14.403308960107672L217.76363636363635,14.038464848811824L217.8909090909091,14.506082406410815L218.01818181818183,14.142950644859912L218.4,14.163506957200873L218.65454545454546,14.350209887211145L219.2909090909091,14.25429395528941L219.41818181818184,14.456408033004182L219.54545454545453,15.127860133464534L219.8,14.091563921708332L220.6909090909091,14.156657558221088L220.94545454545454,15.160411009421724L221.5818181818182,14.302247863549457L221.70909090909092,14.189200318776654L222.2181818181818,14.148095809496375L222.47272727272727,14.211468980862563L222.60000000000002,14.185775619286762L222.85454545454544,14.216606030097383L222.9818181818182,14.252581605544465L223.23636363636362,14.554044430072505L223.36363636363637,14.09842143608974L224.12727272727273,13.981941076425421L224.25454545454545,14.370766199552106L224.38181818181818,14.552332080327558L225.0181818181818,14.079577473493726L225.14545454545456,14.197762067501367L226.2909090909091,14.25943100452425L226.4181818181818,14.091563921708332L226.8,14.278274967120264L227.05454545454546,14.25429395528941L227.30909090909088,15.12957248320948L227.56363636363636,14.321091826145471L227.8181818181818,14.286836715844977L228.2,14.041889548301716L228.3272727272727,14.625987465565027L228.5818181818182,13.971666977955763L228.7090909090909,14.225175894223737L228.96363636363637,14.226888243968684L229.21818181818182,14.029903100087111L229.34545454545454,14.543770331602845L229.6,14.153232858731215L229.72727272727272,13.997360339531543L230.23636363636365,14.788709383744465L230.36363636363637,13.957960064594568L230.61818181818182,14.995968626095717L230.74545454545455,14.127539497155414L230.87272727272727,14.25943100452425L231,14.206331931627723L231.3818181818182,14.064158210387605L231.5090909090909,14.232025293203504L231.63636363636363,14.418728223213794L232.14545454545456,14.199482532647956L232.39999999999998,14.261143354269178L232.52727272727273,14.100133785834688L232.65454545454546,14.175501520817102L232.9090909090909,14.66537962510036L233.16363636363639,14.432427021173346L233.4181818181818,14.386185462658228L233.6727272727273,14.13952594537002L233.79999999999998,14.20290723213783L233.92727272727274,14.245724091163057L234.18181818181816,14.017916651872504L234.3090909090909,14.129251846900361L234.43636363636364,14.627699815309974L234.56363636363636,13.981941076425421L234.6909090909091,14.415303523723901L234.8181818181818,14.360492101082446L235.0727272727273,14.118969633029078L235.2,14.14980815924132L235.58181818181816,14.074440424258906L235.7090909090909,14.745892524719258L235.96363636363637,14.315954776910651L236.0909090909091,14.60371880347914L236.4727272727273,14.158369907966035L236.6,14.256006305034358L236.72727272727272,14.168644006435693L236.85454545454547,14.122402447920594L237.23636363636365,14.271417452738856L237.74545454545455,14.913751492133516L238,14.000785039021437L238.12727272727273,14.661954925610488L238.25454545454548,14.451270983769362L238.63636363636365,14.314242427165706L238.76363636363638,14.432427021173346L239.01818181818183,14.113832583794238L239.52727272727273,14.1086955345594L239.65454545454546,14.485534209471497L239.78181818181818,14.06073351089773L239.9090909090909,14.256006305034358L240.16363636363639,14.110407884304346L240.67272727272726,14.197762067501367L240.79999999999998,14.519789319771991L241.05454545454546,14.706492249782283L241.1818181818182,14.327941225125258L241.3090909090909,14.321091826145471L241.43636363636364,14.800703947360713L241.6909090909091,14.641406728671168L242.07272727272726,14.636261564034687L242.2,14.1086955345594L242.32727272727274,14.267992753248963L242.45454545454547,14.48895890896139L242.58181818181816,14.24914879065295L242.96363636363634,14.276554501973676L243.0909090909091,14.130964196645307L243.72727272727275,14.312530077420758L243.98181818181817,14.106983184814473L244.10909090909092,14.298823164059584L244.23636363636365,14.086426872473512L244.74545454545455,14.33822343899654L245.12727272727273,14.36905384980716L245.38181818181818,14.475251995600196L245.76363636363635,14.09842143608974L245.89090909090908,14.211468980862563L246.01818181818183,14.502657706920923L246.14545454545456,14.290261415334852L246.27272727272725,14.115544933539185L246.52727272727273,14.576313092158411L246.78181818181818,14.303968328696046L247.16363636363636,14.240587041928237L247.29090909090908,14.086426872473512L247.54545454545453,14.211468980862563L247.67272727272726,14.199482532647956L247.8,14.32622887538031L248.1818181818182,14.768153071403523L248.43636363636364,14.309105377930866L248.56363636363636,14.115544933539185L248.6909090909091,14.127539497155414L248.8181818181818,14.247436440908002L249.70909090909092,14.581450141393232L249.83636363636361,14.031615449832056L250.21818181818182,13.99393564004165L250.85454545454544,15.054204748227065L251.36363636363635,15.232345929512622L251.61818181818182,14.011059137491095L252.12727272727275,14.351922236956092L252.25454545454545,15.24947754236369L252.50909090909093,14.422152922703688L253.01818181818183,14.117257283284133L253.14545454545453,14.250861140397895L253.27272727272728,14.786997033999537L253.5272727272727,14.86407711872688L253.65454545454546,14.756166623188918L253.78181818181818,14.571176042923572L254.2909090909091,14.564326643943806L254.54545454545453,14.33822343899654L254.8,14.225175894223737L255.05454545454546,15.15526584478526L255.1818181818182,14.059021161152785L255.43636363636364,14.225175894223737L255.94545454545454,14.17721387056205L256.2,14.564326643943806L256.3272727272727,14.812690395575318L256.70909090909095,14.005922088256257L257.0909090909091,14.396459561127887L257.6,14.290261415334852L257.8545454545455,14.187487969031709L257.9818181818182,14.569463693178626L258.3636363636364,13.981941076425421L258.8727272727273,14.398171910872835L259,14.240587041928237L259.1272727272727,14.273129802483783L259.6363636363636,14.542057981857898L259.76363636363635,14.33822343899654L259.8909090909091,14.495808307941157L260.1454545454545,16.117906671303974L260.27272727272725,14.548907380837665L260.40000000000003,14.511227571047279L260.6545454545454,14.211468980862563L260.7818181818182,14.39988426061778L261.1636363636364,14.266280403504016L261.2909090909091,14.276554501973676L261.54545454545456,14.213181330607508L261.8,14.105270835069526L261.92727272727274,14.490671258706318L262.05454545454546,14.317667126655598L262.94545454545454,14.413591173978956L263.07272727272726,15.980878114700337L263.2,14.309105377930866L263.3272727272727,14.605431153224085L264.0909090909091,14.403308960107672L264.2181818181818,14.531775767986597L264.3454545454546,15.431043423139142L264.4727272727273,14.302247863549457L264.59999999999997,14.667100090246949L264.8545454545455,14.852090670512293L265.23636363636365,14.25429395528941L265.6181818181818,14.166931656690748L266.1272727272727,15.220359481298017L266.25454545454545,15.028511386651264L266.3818181818182,14.257718654779303L266.5090909090909,14.422152922703688L267.0181818181818,14.915463841878461L25.709090909090907,25.96489155292513L26.090909090909093,280.3304615020752L26.21818181818182,187.81272416848404L26.6,93.65771267047295L26.727272727272727,223.839799954341L26.98181818181818,222.825699366056L27.10909090909091,92.56187375692221L27.49090909090909,188.96837359208328L27.745454545454546,252.01903078189264L27.872727272727275,129.3628727908318L28.381818181818183,264.98539751309613L28.50909090909091,273.06720950053284L28.636363636363637,167.78943140690143L29.01818181818182,112.88436514597672L29.27272727272727,284.293536736415L29.4,204.78051140675177L29.527272727272727,74.69036350800441L29.781818181818185,77.73258411884308L29.909090909090907,208.06794699338766L30.036363636363635,284.8037358063918L30.290909090909093,109.4175102022978L30.41818181818182,18.54478506858534L31.054545454545455,147.3590454995059L31.30909090909091,26.987277966279255L31.436363636363637,132.94427459973556L31.690909090909088,279.6263205638299L32.07272727272727,15.436091202955994L32.32727272727273,225.85051244038803L32.58181818181818,220.7804071536431L32.836363636363636,14.58579999666949L33.09090909090909,191.27036813130746L33.345454545454544,250.4115239106692L33.85454545454545,153.3842724395486L33.981818181818184,266.25156247615814L34.236363636363635,165.3976247322101L34.49090909090909,20.279484629631064L35.127272727272725,72.69149950834422L35.63636363636363,285.0909966780589L35.76363636363636,235.5309043572499L35.89090909090909,107.12192683036513L36.018181818181816,17.922682725466224L37.54545454545455,56.7405234025075L37.800000000000004,98.08417733816L38.05454545454545,285.81508527352264L38.309090909090905,88.22417941001746L38.43636363636364,14.319736554072474L38.56363636363636,64.94693115124336L38.69090909090909,193.55935773941187L38.945454545454545,248.7724805886929L39.07272727272728,124.6104854780894L39.2,23.579328665366546L39.32727272727272,38.56658459626712L39.45454545454545,155.7930413180819L39.58181818181818,267.4812324780684L39.836363636363636,163.00092142705734L39.96363636363636,42.891127934822684L40.09090909090909,21.04457223415377L40.34545454545455,243.67425543528336L40.599999999999994,200.33732901169702L40.981818181818184,81.86751515590228L41.36363636363637,233.64550990324753L41.618181818181824,17.341904007471534L41.74545454545454,51.597176616008475L42,276.40672973486096L42.38181818181818,31.45620241531959L42.63636363636364,137.73749455580344L42.763636363636365,257.38975489139557L43.018181818181816,180.8194228869218L43.27272727272727,16.305835026961123L43.4,100.32205208906761L43.52727272727273,229.799783376547L43.78181818181818,216.62371060939935L43.909090909090914,86.08392888307571L44.29090909090909,195.83462420335184L44.54545454545455,247.1024039708651L44.67272727272727,122.24574671112573L45.69090909090909,21.8500096156047L45.81818181818182,119.89363753795624L46.07272727272728,282.98901026982526L46.709090909090904,214.51721609555756L47.345454545454544,53.28256699672114L47.472727272727276,178.47189485797514L47.72727272727273,258.84678598550653L47.85454545454545,140.1360420859777L47.98181818181818,30.28200929898483L48.236363636363635,140.14013529167724L48.49090909090909,277.27068727750043L48.872727272727275,16.80351203221542L49,102.57542319939688L49.38181818181818,214.5136087995309L49.50909090909091,83.96363412875397L50.14545454545454,245.40182967369373L50.4,21.848597535720245L50.78181818181818,269.8295375567216" style="fill: none;" fill="none"></path></g></g></g></g></g></g><g transform="translate(50, 177)" clip-path="url(#clip_1)"><clipPath id="clip_1"><rect width="280" height="23"></rect></clipPath><g><g><line x1="0" y1="0" x2="0" y2="5" style="visibility: inherit;" fill="rgb(0, 0, 0)" stroke="rgb(204, 204, 204)" stroke-width="1px"></line><line x1="25.454545454545457" y1="0" x2="25.454545454545457" y2="5" style="visibility: inherit;" fill="rgb(0, 0, 0)" stroke="rgb(204, 204, 204)" stroke-width="1px"></line><line x1="50.909090909090914" y1="0" x2="50.909090909090914" y2="5" style="visibility: inherit;" fill="rgb(0, 0, 0)" stroke="rgb(204, 204, 204)" stroke-width="1px"></line><line x1="76.36363636363636" y1="0" x2="76.36363636363636" y2="5" style="visibility: inherit;" fill="rgb(0, 0, 0)" stroke="rgb(204, 204, 204)" stroke-width="1px"></line><line x1="101.81818181818183" y1="0" x2="101.81818181818183" y2="5" style="visibility: inherit;" fill="rgb(0, 0, 0)" stroke="rgb(204, 204, 204)" stroke-width="1px"></line><line x1="127.27272727272727" y1="0" x2="127.27272727272727" y2="5" style="visibility: inherit;" fill="rgb(0, 0, 0)" stroke="rgb(204, 204, 204)" stroke-width="1px"></line><line x1="152.72727272727272" y1="0" x2="152.72727272727272" y2="5" style="visibility: inherit;" fill="rgb(0, 0, 0)" stroke="rgb(204, 204, 204)" stroke-width="1px"></line><line x1="178.1818181818182" y1="0" x2="178.1818181818182" y2="5" style="visibility: inherit;" fill="rgb(0, 0, 0)" stroke="rgb(204, 204, 204)" stroke-width="1px"></line><line x1="203.63636363636365" y1="0" x2="203.63636363636365" y2="5" style="visibility: inherit;" fill="rgb(0, 0, 0)" stroke="rgb(204, 204, 204)" stroke-width="1px"></line><line x1="229.0909090909091" y1="0" x2="229.0909090909091" y2="5" style="visibility: inherit;" fill="rgb(0, 0, 0)" stroke="rgb(204, 204, 204)" stroke-width="1px"></line><line x1="254.54545454545453" y1="0" x2="254.54545454545453" y2="5" style="visibility: inherit;" fill="rgb(0, 0, 0)" stroke="rgb(204, 204, 204)" stroke-width="1px"></line><line x1="280" y1="0" x2="280" y2="5" style="visibility: inherit;" fill="rgb(0, 0, 0)" stroke="rgb(204, 204, 204)" stroke-width="1px"></line></g><g transform="translate(0, 8)"><text x="0" y="0" dx="0em" dy="0.95em" style="text-anchor: middle; visibility: hidden; font-family: Roboto, sans-serif; font-size: 12px; font-weight: 200;" fill="rgb(255, 255, 255)" stroke="none" stroke-width="1px">-200</text><text x="25.454545454545457" y="0" dx="0em" dy="0.95em" style="text-anchor: middle; visibility: inherit; font-family: Roboto, sans-serif; font-size: 12px; font-weight: 200;" fill="rgb(255, 255, 255)" stroke="none" stroke-width="1px">0</text><text x="50.909090909090914" y="0" dx="0em" dy="0.95em" style="text-anchor: middle; visibility: hidden; font-family: Roboto, sans-serif; font-size: 12px; font-weight: 200;" fill="rgb(255, 255, 255)" stroke="none" stroke-width="1px">200</text><text x="76.36363636363636" y="0" dx="0em" dy="0.95em" style="text-anchor: middle; visibility: inherit; font-family: Roboto, sans-serif; font-size: 12px; font-weight: 200;" fill="rgb(255, 255, 255)" stroke="none" stroke-width="1px">400</text><text x="101.81818181818183" y="0" dx="0em" dy="0.95em" style="text-anchor: middle; visibility: hidden; font-family: Roboto, sans-serif; font-size: 12px; font-weight: 200;" fill="rgb(255, 255, 255)" stroke="none" stroke-width="1px">600</text><text x="127.27272727272727" y="0" dx="0em" dy="0.95em" style="text-anchor: middle; visibility: inherit; font-family: Roboto, sans-serif; font-size: 12px; font-weight: 200;" fill="rgb(255, 255, 255)" stroke="none" stroke-width="1px">800</text><text x="152.72727272727272" y="0" dx="0em" dy="0.95em" style="text-anchor: middle; visibility: hidden; font-family: Roboto, sans-serif; font-size: 12px; font-weight: 200;" fill="rgb(255, 255, 255)" stroke="none" stroke-width="1px">1k</text><text x="178.1818181818182" y="0" dx="0em" dy="0.95em" style="text-anchor: middle; visibility: inherit; font-family: Roboto, sans-serif; font-size: 12px; font-weight: 200;" fill="rgb(255, 255, 255)" stroke="none" stroke-width="1px">1.2k</text><text x="203.63636363636365" y="0" dx="0em" dy="0.95em" style="text-anchor: middle; visibility: hidden; font-family: Roboto, sans-serif; font-size: 12px; font-weight: 200;" fill="rgb(255, 255, 255)" stroke="none" stroke-width="1px">1.4k</text><text x="229.0909090909091" y="0" dx="0em" dy="0.95em" style="text-anchor: middle; visibility: inherit; font-family: Roboto, sans-serif; font-size: 12px; font-weight: 200;" fill="rgb(255, 255, 255)" stroke="none" stroke-width="1px">1.6k</text><text x="254.54545454545453" y="0" dx="0em" dy="0.95em" style="text-anchor: middle; visibility: hidden; font-family: Roboto, sans-serif; font-size: 12px; font-weight: 200;" fill="rgb(255, 255, 255)" stroke="none" stroke-width="1px">1.8k</text><text x="280" y="0" dx="0em" dy="0.95em" style="text-anchor: middle; visibility: hidden; font-family: Roboto, sans-serif; font-size: 12px; font-weight: 200;" fill="rgb(255, 255, 255)" stroke="none" stroke-width="1px">2k</text></g><line x1="0" y1="0" x2="280" y2="0" fill="rgb(0, 0, 0)" stroke="rgb(204, 204, 204)" stroke-width="1px"></line></g></g></g></g></svg>