<svg viewBox="0 0 330 200" xmlns="http://www.w3.org/2000/svg"><g><g><g><g><g><line x1="60" y1="177" x2="55" y2="177" style="visibility: inherit;" fill="rgb(0, 0, 0)" stroke="rgb(204, 204, 204)" stroke-width="1px"></line><line x1="60" y1="162.25" x2="55" y2="162.25" style="visibility: inherit;" fill="rgb(0, 0, 0)" stroke="rgb(204, 204, 204)" stroke-width="1px"></line><line x1="60" y1="147.5" x2="55" y2="147.5" style="visibility: inherit;" fill="rgb(0, 0, 0)" stroke="rgb(204, 204, 204)" stroke-width="1px"></line><line x1="60" y1="132.75" x2="55" y2="132.75" style="visibility: inherit;" fill="rgb(0, 0, 0)" stroke="rgb(204, 204, 204)" stroke-width="1px"></line><line x1="60" y1="118.00000000000001" x2="55" y2="118.00000000000001" style="visibility: inherit;" fill="rgb(0, 0, 0)" stroke="rgb(204, 204, 204)" stroke-width="1px"></line><line x1="60" y1="103.24999999999999" x2="55" y2="103.24999999999999" style="visibility: inherit;" fill="rgb(0, 0, 0)" stroke="rgb(204, 204, 204)" stroke-width="1px"></line><line x1="60" y1="88.5" x2="55" y2="88.5" style="visibility: inherit;" fill="rgb(0, 0, 0)" stroke="rgb(204, 204, 204)" stroke-width="1px"></line><line x1="60" y1="73.75" x2="55" y2="73.75" style="visibility: inherit;" fill="rgb(0, 0, 0)" stroke="rgb(204, 204, 204)" stroke-width="1px"></line><line x1="60" y1="59.00000000000001" x2="55" y2="59.00000000000001" style="visibility: inherit;" fill="rgb(0, 0, 0)" stroke="rgb(204, 204, 204)" stroke-width="1px"></line><line x1="60" y1="44.25" x2="55" y2="44.25" style="visibility: inherit;" fill="rgb(0, 0, 0)" stroke="rgb(204, 204, 204)" stroke-width="1px"></line><line x1="60" y1="29.499999999999993" x2="55" y2="29.499999999999993" style="visibility: inherit;" fill="rgb(0, 0, 0)" stroke="rgb(204, 204, 204)" stroke-width="1px"></line><line x1="60" y1="14.750000000000007" x2="55" y2="14.750000000000007" style="visibility: inherit;" fill="rgb(0, 0, 0)" stroke="rgb(204, 204, 204)" stroke-width="1px"></line><line x1="60" y1="0" x2="55" y2="0" style="visibility: inherit;" fill="rgb(0, 0, 0)" stroke="rgb(204, 204, 204)" stroke-width="1px"></line></g><g transform="translate(50, 0)"><text x="0" y="177" dx="0em" dy="0.3em" style="text-anchor: end; visibility: hidden; font-family: Roboto, sans-serif; font-size: 12px; font-weight: 200;" fill="rgb(255, 255, 255)" stroke="none" stroke-width="1px">0.985</text><text x="0" y="162.25" dx="0em" dy="0.3em" style="text-anchor: end; visibility: inherit; font-family: Roboto, sans-serif; font-size: 12px; font-weight: 200;" fill="rgb(255, 255, 255)" stroke="none" stroke-width="1px">0.986</text><text x="0" y="147.5" dx="0em" dy="0.3em" style="text-anchor: end; visibility: hidden; font-family: Roboto, sans-serif; font-size: 12px; font-weight: 200;" fill="rgb(255, 255, 255)" stroke="none" stroke-width="1px">0.987</text><text x="0" y="132.75" dx="0em" dy="0.3em" style="text-anchor: end; visibility: inherit; font-family: Roboto, sans-serif; font-size: 12px; font-weight: 200;" fill="rgb(255, 255, 255)" stroke="none" stroke-width="1px">0.988</text><text x="0" y="118.00000000000001" dx="0em" dy="0.3em" style="text-anchor: end; visibility: hidden; font-family: Roboto, sans-serif; font-size: 12px; font-weight: 200;" fill="rgb(255, 255, 255)" stroke="none" stroke-width="1px">0.989</text><text x="0" y="103.24999999999999" dx="0em" dy="0.3em" style="text-anchor: end; visibility: inherit; font-family: Roboto, sans-serif; font-size: 12px; font-weight: 200;" fill="rgb(255, 255, 255)" stroke="none" stroke-width="1px">0.99</text><text x="0" y="88.5" dx="0em" dy="0.3em" style="text-anchor: end; visibility: hidden; font-family: Roboto, sans-serif; font-size: 12px; font-weight: 200;" fill="rgb(255, 255, 255)" stroke="none" stroke-width="1px">0.991</text><text x="0" y="73.75" dx="0em" dy="0.3em" style="text-anchor: end; visibility: inherit; font-family: Roboto, sans-serif; font-size: 12px; font-weight: 200;" fill="rgb(255, 255, 255)" stroke="none" stroke-width="1px">0.992</text><text x="0" y="59.00000000000001" dx="0em" dy="0.3em" style="text-anchor: end; visibility: hidden; font-family: Roboto, sans-serif; font-size: 12px; font-weight: 200;" fill="rgb(255, 255, 255)" stroke="none" stroke-width="1px">0.993</text><text x="0" y="44.25" dx="0em" dy="0.3em" style="text-anchor: end; visibility: inherit; font-family: Roboto, sans-serif; font-size: 12px; font-weight: 200;" fill="rgb(255, 255, 255)" stroke="none" stroke-width="1px">0.994</text><text x="0" y="29.499999999999993" dx="0em" dy="0.3em" style="text-anchor: end; visibility: hidden; font-family: Roboto, sans-serif; font-size: 12px; font-weight: 200;" fill="rgb(255, 255, 255)" stroke="none" stroke-width="1px">0.995</text><text x="0" y="14.750000000000007" dx="0em" dy="0.3em" style="text-anchor: end; visibility: inherit; font-family: Roboto, sans-serif; font-size: 12px; font-weight: 200;" fill="rgb(255, 255, 255)" stroke="none" stroke-width="1px">0.996</text><text x="0" y="0" dx="0em" dy="0.3em" style="text-anchor: end; visibility: hidden; font-family: Roboto, sans-serif; font-size: 12px; font-weight: 200;" fill="rgb(255, 255, 255)" stroke="none" stroke-width="1px">0.997</text></g><line x1="60" y1="0" x2="60" y2="177" fill="rgb(0, 0, 0)" stroke="rgb(204, 204, 204)" stroke-width="1px"></line></g></g><g transform="translate(60, 0)" clip-path="url(#clip_0)"><clipPath id="clip_0"><rect width="270" height="177"></rect></clipPath><g><g><g><line x1="0" y1="0" x2="0" y2="177" fill="rgb(0, 0, 0)" stroke="rgb(189, 189, 189)" stroke-width="1px" opacity="0.25"></line><line x1="24.545454545454547" y1="0" x2="24.545454545454547" y2="177" fill="rgb(0, 0, 0)" stroke="rgb(189, 189, 189)" stroke-width="1px" opacity="0.25"></line><line x1="49.09090909090909" y1="0" x2="49.09090909090909" y2="177" fill="rgb(0, 0, 0)" stroke="rgb(189, 189, 189)" stroke-width="1px" opacity="0.25"></line><line x1="73.63636363636363" y1="0" x2="73.63636363636363" y2="177" fill="rgb(0, 0, 0)" stroke="rgb(189, 189, 189)" stroke-width="1px" opacity="0.25"></line><line x1="98.18181818181819" y1="0" x2="98.18181818181819" y2="177" fill="rgb(0, 0, 0)" stroke="rgb(189, 189, 189)" stroke-width="1px" opacity="0.25"></line><line x1="122.72727272727272" y1="0" x2="122.72727272727272" y2="177" fill="rgb(0, 0, 0)" stroke="rgb(189, 189, 189)" stroke-width="1px" opacity="0.25"></line><line x1="147.27272727272725" y1="0" x2="147.27272727272725" y2="177" fill="rgb(0, 0, 0)" stroke="rgb(189, 189, 189)" stroke-width="1px" opacity="0.25"></line><line x1="171.8181818181818" y1="0" x2="171.8181818181818" y2="177" fill="rgb(0, 0, 0)" stroke="rgb(189, 189, 189)" stroke-width="1px" opacity="0.25"></line><line x1="196.36363636363637" y1="0" x2="196.36363636363637" y2="177" fill="rgb(0, 0, 0)" stroke="rgb(189, 189, 189)" stroke-width="1px" opacity="0.25"></line><line x1="220.90909090909093" y1="0" x2="220.90909090909093" y2="177" fill="rgb(0, 0, 0)" stroke="rgb(189, 189, 189)" stroke-width="1px" opacity="0.25"></line><line x1="245.45454545454544" y1="0" x2="245.45454545454544" y2="177" fill="rgb(0, 0, 0)" stroke="rgb(189, 189, 189)" stroke-width="1px" opacity="0.25"></line><line x1="270" y1="0" x2="270" y2="177" fill="rgb(0, 0, 0)" stroke="rgb(189, 189, 189)" stroke-width="1px" opacity="0.25"></line></g><g><line x1="0" y1="177" x2="270" y2="177" fill="rgb(0, 0, 0)" stroke="rgb(189, 189, 189)" stroke-width="1px" opacity="0.25"></line><line x1="0" y1="162.25" x2="270" y2="162.25" fill="rgb(0, 0, 0)" stroke="rgb(189, 189, 189)" stroke-width="1px" opacity="0.25"></line><line x1="0" y1="147.5" x2="270" y2="147.5" fill="rgb(0, 0, 0)" stroke="rgb(189, 189, 189)" stroke-width="1px" opacity="0.25"></line><line x1="0" y1="132.75" x2="270" y2="132.75" fill="rgb(0, 0, 0)" stroke="rgb(189, 189, 189)" stroke-width="1px" opacity="0.25"></line><line x1="0" y1="118.00000000000001" x2="270" y2="118.00000000000001" fill="rgb(0, 0, 0)" stroke="rgb(189, 189, 189)" stroke-width="1px" opacity="0.25"></line><line x1="0" y1="103.24999999999999" x2="270" y2="103.24999999999999" fill="rgb(0, 0, 0)" stroke="rgb(189, 189, 189)" stroke-width="1px" opacity="0.25"></line><line x1="0" y1="88.5" x2="270" y2="88.5" fill="rgb(0, 0, 0)" stroke="rgb(189, 189, 189)" stroke-width="1px" opacity="0.25"></line><line x1="0" y1="73.75" x2="270" y2="73.75" fill="rgb(0, 0, 0)" stroke="rgb(189, 189, 189)" stroke-width="1px" opacity="0.25"></line><line x1="0" y1="59.00000000000001" x2="270" y2="59.00000000000001" fill="rgb(0, 0, 0)" stroke="rgb(189, 189, 189)" stroke-width="1px" opacity="0.25"></line><line x1="0" y1="44.25" x2="270" y2="44.25" fill="rgb(0, 0, 0)" stroke="rgb(189, 189, 189)" stroke-width="1px" opacity="0.25"></line><line x1="0" y1="29.499999999999993" x2="270" y2="29.499999999999993" fill="rgb(0, 0, 0)" stroke="rgb(189, 189, 189)" stroke-width="1px" opacity="0.25"></line><line x1="0" y1="14.750000000000007" x2="270" y2="14.750000000000007" fill="rgb(0, 0, 0)" stroke="rgb(189, 189, 189)" stroke-width="1px" opacity="0.25"></line><line x1="0" y1="0" x2="270" y2="0" fill="rgb(0, 0, 0)" stroke="rgb(189, 189, 189)" stroke-width="1px" opacity="0.25"></line></g></g></g><g><g><line x1="0" y1="14705.749999999987" x2="270" y2="14705.749999999987" fill="rgb(0, 0, 0)" stroke="rgb(153, 153, 153)" stroke-width="1.5px"></line></g></g><g><g><line x1="24.545454545454547" y1="0" x2="24.545454545454547" y2="177" fill="rgb(0, 0, 0)" stroke="rgb(153, 153, 153)" stroke-width="1.5px"></line></g></g><g><g><g><g><g><path stroke="rgb(255, 112, 67)" stroke-width="2px" d="M31.295454545454543,195.70026332143308L31.418181818181818,166.4483146611302L31.540909090909093,153.94464997773127L31.90909090909091,136.19943582638172L32.03181818181818,140.69405828910942L32.27727272727273,128.62009486140957L32.52272727272727,126.20024333161707L32.64545454545455,115.32188731796079L32.768181818181816,109.09168133985152L32.89090909090909,98.97044270432193L33.25909090909091,96.4604421428001L33.38181818181818,104.97485289902606L33.50454545454545,100.35989555749933L33.627272727272725,92.69219421248393L33.872727272727275,95.66226930359997L34.24090909090909,97.07330524402825L34.85454545454545,87.75111214354737L34.97727272727273,83.41957893267455L35.1,87.35252937322439L35.222727272727276,71.08166389681094L35.34545454545455,72.75009358545903L35.46818181818182,73.75115139858072L36.08181818181818,71.23425454834913L37.06363636363636,67.71996390183074L37.43181818181818,61.23207532972333L37.554545454545455,56.596972296277634L38.413636363636364,56.26562561371288L38.78181818181818,51.167738996604996L39.027272727272724,48.405814315470344L39.15,45.561078682893545L39.27272727272727,62.63327668629119L39.763636363636365,50.01540087772261L39.88636363636364,61.07495946355599L40.009090909090915,50.4163950125442L40.377272727272725,44.68942440987024L40.5,45.11279180908534L40.86818181818182,60.8799164489772L41.3590909090909,43.24808608268989L41.60454545454545,37.79032026991355L41.85,37.11377956429218L41.972727272727276,39.52822772240063L42.095454545454544,40.30908021673906L42.21818181818182,37.88266564217546L42.46363636363637,35.016630606695024L42.709090909090904,44.43079960158041L42.95454545454545,44.066843389334345L43.32272727272728,49.93512909344456L43.445454545454545,31.930538706372552L43.56818181818182,33.15234802507811L43.81363636363636,34.2567943951097L43.93636363636364,32.54394890192786L44.059090909090905,34.18856221034341L44.42727272727273,37.550491843188404L44.67272727272728,29.398834963778377L44.79545454545455,34.750857317530915L45.04090909090909,36.848691728164354L45.163636363636364,32.98570830014288L45.53181818181818,25.694989480893447L46.14545454545454,23.62151801485986L46.268181818181816,31.061861681338463L46.39090909090909,41.31556835615345L46.63636363636364,38.857567637227866L46.75909090909091,34.26523566786317L47.00454545454546,28.986271193885006L47.25,28.8622222252262L47.37272727272727,25.44765583917927L47.49545454545454,22.35973882821425L47.61818181818182,30.750005103033768L47.86363636363637,23.908356628944308L47.986363636363635,25.88967530854397L48.845454545454544,20.992158752251093L49.336363636363636,20.280406821708898L49.82727272727273,29.35400225457043L49.95,18.245878134587016L50.07272727272727,20.710641142378403L50.56363636363637,22.18949894705355L50.68636363636363,32.20680277704591L50.93181818181818,25.747058923002747L51.3,17.78905738291705L51.42272727272727,22.36649940548742L51.79090909090909,15.389360893596951L51.913636363636364,14.246407502193074L52.15909090909091,31.44890131550921L52.28181818181818,22.842954576002885L52.404545454545456,15.304224884503123L52.65,15.68006567716248L52.77272727272727,8.260320785997838L52.89545454545455,13.086514975642908L53.018181818181816,12.493690840015233L53.14090909090909,16.66571418738892L53.263636363636365,19.391533662655114L53.63181818181818,26.816525822745625L54,30.75210836283309L54.49090909090909,28.956749169539382L54.61363636363636,18.0075262835674L54.85909090909091,24.501733282270823L55.10454545454546,13.701724993624278L55.227272727272734,19.468889038228426L55.84090909090909,28.124721694269134L56.20909090909091,30.572050528692184L56.331818181818186,20.312691567520137L56.45454545454545,20.466341089118714L56.57727272727272,43.494278902357955L56.82272727272727,34.820856091109576L57.31363636363636,22.56516761584671L57.55909090909091,20.927053183338238L57.804545454545455,24.769061309111816L58.05,41.99340413928685L58.663636363636364,41.34262346578L58.90909090909091,30.70913858027604L59.4,18.46534535176428L60.01363636363636,10.525103169005344L60.25909090909091,6.874336860966405L60.38181818181818,9.211594904893337L60.75,6.457592681310097L60.99545454545455,4.730989524877965L61.11818181818182,12.37910250971163L61.240909090909085,63.433081079419715L61.486363636363635,41.14268889957311L61.60909090909091,31.55415319760758L61.731818181818184,21.42171759224072L62.222727272727276,27.06966082344197L62.345454545454544,20.73517470413259L62.590909090909086,26.509331446015334L62.95909090909091,26.485284841730262L63.449999999999996,19.790582869453985L63.57272727272727,20.598638471366538L63.695454545454545,16.258595047236412L63.81818181818182,12.689593635702337L64.06363636363636,15.075910617533815L64.43181818181819,12.573949223532674L64.55454545454546,25.101136807068478L64.67727272727272,18.440681292690396L65.04545454545455,37.00879530553668L65.16818181818182,26.25309279230027L65.41363636363637,20.61624299685197L66.15,16.343359584808876L66.39545454545454,12.666250535964616L66.76363636363637,8.752991526794533L66.88636363636364,16.648052602693316L67.13181818181818,29.62395319323861L67.25454545454545,40.67542873013717L67.86818181818181,26.077911199262612L67.9909090909091,35.80163277454957L68.23636363636363,37.8501661137806L68.48181818181818,43.38439847922719L68.60454545454546,30.301411830762373L68.72727272727272,27.424548604118083L69.09545454545454,27.034415136592244L69.21818181818182,18.041706687699076L69.3409090909091,31.276717356736935L69.58636363636364,24.892200381694153L69.7090909090909,26.62838520475631L69.95454545454545,39.47205418269872L70.07727272727273,34.114514839177865L70.32272727272726,126.2050227710769L70.56818181818181,78.1380375140398L70.81363636363636,48.11026553591856L70.93636363636364,51.91561978030593L71.05909090909091,41.35804873090087L71.30454545454546,24.11232155192454L71.42727272727272,64.46055489557214L71.79545454545455,44.802502904993986L71.91818181818182,43.62204897085585L72.0409090909091,29.330623124121168L72.16363636363636,26.248109134481773L72.4090909090909,20.093840046195023L72.53181818181818,21.745216467063955L72.65454545454546,18.35672813539551L72.77727272727273,16.02682784727187L73.88181818181818,42.68596818167512L74.00454545454546,21.86574350666066L74.25,14.421090953773593L74.61818181818182,14.927228184477595L75.47727272727272,24.731908781491356L75.60000000000001,13.171662225224459L76.09090909090908,18.853692420660497L76.21363636363637,17.438385420048956L76.33636363636363,22.304499872329647L76.58181818181818,19.063658957364158L76.82727272727273,21.05290599148291L77.31818181818183,34.048412296061585L78.42272727272727,29.30173977189222L78.54545454545455,38.92351074202597L78.66818181818182,41.87584907522043L78.79090909090908,24.423001758516925L79.03636363636363,42.23097934261688L79.1590909090909,26.269223343944216L79.52727272727273,23.891856510411067L79.89545454545454,18.976895760875802L80.63181818181819,12.910387773145668L80.75454545454545,21.8886611097044L80.87727272727273,16.438994051990743L81,27.197558237301628L81.12272727272727,21.331325908415224L81.36818181818182,11.205514323660008L81.49090909090908,16.560624678104382L81.61363636363636,59.706931304435436L81.85909090909091,139.48211829155866L81.98181818181818,96.7183204191341L82.10454545454544,65.12213757618716L82.35,77.78425084939299L82.59545454545454,55.09768030280289L82.7181818181818,52.24851887961837L83.2090909090909,62.56358557665578L84.06818181818181,45.37166656091283L84.43636363636364,34.01733797213053L84.55909090909091,27.724153574828307L84.80454545454545,16.154589925122995L85.05,15.967327567287228L85.41818181818181,35.96999400397977L86.76818181818182,17.019938954953385L87.13636363636364,27.17511606767447L87.25909090909092,24.95480490061508L87.38181818181818,19.76306843955901L87.62727272727273,23.179896928068835L87.87272727272727,24.784431420085248L87.99545454545455,18.250658060502758L88.2409090909091,16.928161159391234L88.85454545454546,20.14296809150873L88.97727272727272,12.274046703066318L89.71363636363637,12.377218987873716L89.95909090909092,15.779259363609459L90.08181818181818,12.10518493640262L90.20454545454545,9.826538457797989L90.32727272727273,12.022093042331441L90.45,9.108515253422809L90.57272727272728,30.889731258605455L90.69545454545455,20.948862606557576L90.81818181818181,13.722558769150316L90.94090909090909,15.102075119355199L91.06363636363636,16.44919768544399L91.30909090909091,10.725952527356656L91.67727272727272,16.272887600322708L91.80000000000001,13.069529946363692L91.92272727272727,9.811179218123383L92.16818181818182,12.458440099614846L92.65909090909092,7.5149262633672365L92.90454545454546,13.901060908243107L93.14999999999999,14.98657093596724L93.27272727272728,15.786280597163818L93.64090909090909,9.660034206457418L93.76363636363637,12.590358559458567L93.88636363636364,6.332294693093959L94.13181818181818,10.51951302915962L94.37727272727273,4.12481201785761L94.62272727272727,4.815709239829617L94.86818181818182,0.3311689654510175L94.99090909090908,-4.957322313813807L95.35909090909091,8.867075232012322L95.60454545454544,34.97577778538687L95.72727272727273,35.87026500726147L95.85,48.06016011252606L95.97272727272727,33.477877922146114L96.09545454545454,32.9673725529235L96.21818181818182,19.374723134261643L96.46363636363637,16.63762484659058L96.58636363636364,10.096638933832919L97.2,5.875240097054439L97.32272727272728,6.756739622121526L97.56818181818183,4.613318732836117L97.69090909090909,10.824111921465013L97.81363636363636,4.530176820084789L97.93636363636364,8.2506614814545L98.18181818181819,7.58802620710998L98.42727272727274,3.2566934594045813L98.67272727272727,-2.2370322603863104L99.16363636363636,-2.9239296648097968L99.4090909090909,62.71273118655748L99.53181818181818,39.448696317677886L99.65454545454546,34.9912736549408L100.02272727272728,22.222207220460152L100.51363636363637,40.83630079750127L100.63636363636364,27.36201526358038L100.88181818181819,19.277443943228814L101.00454545454545,29.49459441769409L101.25,15.2872553841363L101.7409090909091,7.059659253125155L101.86363636363636,12.81132898960525L102.10909090909091,8.171870531047453L102.35454545454546,9.76750964010094L103.21363636363637,11.170104039217692L103.33636363636364,15.426351173224752L103.58181818181818,10.5574555537137L103.70454545454545,24.188399561705772L103.82727272727273,22.569160418786456L103.95,37.40752842251959L104.07272727272726,26.047121728805358L104.19545454545455,21.38343389352948L104.4409090909091,15.467689654354981L104.56363636363636,24.091210306360473L105.05454545454546,49.97396112720613L105.17727272727272,42.7908206536796L105.42272727272727,30.316274246837917L105.66818181818182,17.41305503920556L106.03636363636363,15.163816700433063L106.28181818181818,17.15441070202186L106.40454545454546,15.528042854088701L106.52727272727273,14.03280938936393L106.89545454545456,24.417862971264817L107.01818181818182,29.09030518510391L107.14090909090909,37.53486734377542L107.26363636363637,25.826717792434014L107.38636363636363,19.618048106720195L107.63181818181818,61.46718353932437L107.75454545454546,82.2715524369799L107.87727272727273,54.227318783660415L108.12272727272727,31.537076294458032L108.24545454545454,23.489825809023763L108.36818181818182,34.025824406159416L108.49090909090908,43.16814781332725L108.61363636363636,24.307607466607546L108.73636363636363,54.63151725210531L108.98181818181818,40.68662738846573L109.10454545454546,33.80408158330186L109.47272727272727,30.342722168136323L109.96363636363637,44.22422165308446L110.33181818181818,49.88115240713385L110.45454545454547,42.809337243916794L110.57727272727273,39.97643443672687L110.69999999999999,25.732716445498635L110.82272727272728,8.502410772069716L110.94545454545454,14.196744324341052L111.06818181818183,17.316537166580645L111.19090909090909,15.402713265982957L111.43636363636364,7.203135804514025L111.55909090909091,6.51429986726073L111.68181818181819,12.55831518036684L112.17272727272727,11.657006539479884L112.66363636363637,6.143292592512478L112.78636363636363,1.721685222714271L113.03181818181818,43.232520086723646L113.15454545454544,18.7793358225579L113.27727272727273,19.249520353016194L113.39999999999999,5.874275762758806L113.52272727272728,10.61571078236328L113.64545454545454,8.858652143092838L114.01363636363637,2.831488197095645L114.13636363636364,4.930488482145904L114.2590909090909,7.525873121636495L114.87272727272727,20.21689392150481L115.11818181818182,19.88944974554169L115.24090909090908,18.50540241606616L115.36363636363636,24.35524802808445L115.48636363636363,32.392873224046696L115.73181818181818,22.2217568972274L116.1,8.473837734374255L116.22272727272728,16.25795486039687L116.5909090909091,58.263546767633045L116.71363636363635,34.84958661961606L116.83636363636364,21.98879135470386L117.08181818181819,9.299033765915816L117.32727272727273,0.42339656646475654L117.69545454545455,5.044223439071432L117.81818181818181,13.086807281597732L118.06363636363636,22.885286349549762L118.43181818181819,45.8360679259862L118.55454545454545,22.791179663597124L118.67727272727274,52.08886881271511L118.92272727272727,28.472459242341294L119.04545454545455,25.2879998717302L119.16818181818181,60.193033125019305L119.2909090909091,116.76382946134703L119.41363636363636,100.9014111468844L119.53636363636365,63.99504771886083L119.6590909090909,40.143884414779336L119.7818181818182,69.40337113997234L120.15,52.74147308147515L120.27272727272727,51.72556808159849L120.76363636363637,39.38826881984531L120.88636363636364,30.353097505210425L121.13181818181818,147.62593869378338L121.37727272727273,166.62580568796523L121.62272727272727,108.1800077391039L121.74545454545455,78.90202944471592L121.86818181818181,45.0801200449105L121.9909090909091,57.37177274105727L122.11363636363636,54.800555166468015L122.23636363636363,28.61508294157217L122.48181818181817,35.83919603951058L122.72727272727272,19.019814534945954L122.97272727272727,8.779430320240916L123.3409090909091,4.861957794654058L123.46363636363637,11.86406889333054L123.58636363636363,5.896520893415823L123.70909090909092,11.14882228412588L123.83181818181818,10.366099868047728L124.32272727272728,15.166554137366742L124.56818181818181,7.655054905593345L124.69090909090909,22.96637192879908L124.93636363636364,26.88307442375826L125.30454545454546,25.299344337634743L125.55000000000001,32.81057569780994L125.67272727272727,13.713750013107326L125.79545454545453,11.608249216313393L126.16363636363637,13.759287565372155L126.53181818181818,25.070321589363324L126.65454545454546,16.418039625676418L126.89999999999999,70.30995935546798L127.14545454545454,53.65643512217664L127.39090909090909,46.33628951912265L127.51363636363637,32.14674827697956L128.00454545454545,25.63682440068238L128.25,24.180585212384784L128.37272727272727,14.919222442432636L128.49545454545455,18.195234971119586L128.61818181818182,14.742351124807033L128.98636363636365,53.27167763121252L129.23181818181817,28.21716917638342L129.72272727272727,39.682954675461986L129.96818181818182,54.578684453074096L130.0909090909091,49.48775789970393L130.21363636363637,44.577453075852695L130.33636363636364,26.26656962573925L130.4590909090909,19.214142806174742L130.95,14.98268671443636L131.19545454545454,7.841893408360516L131.3181818181818,25.00842574457106L131.68636363636364,17.642684764978288L131.8090909090909,20.79428772170361L131.9318181818182,54.97324054264464L132.05454545454546,53.58404131426441L132.17727272727274,36.27244221981713L132.4227272727273,28.780408834316077L132.54545454545453,19.237706550894465L132.66818181818184,81.50240610178534L132.79090909090908,101.71532987437374L133.03636363636363,69.53052954007322L133.40454545454546,44.13334157543824L133.65,35.79790827320349L133.77272727272728,34.507794408120674L134.0181818181818,31.655371730397906L134.1409090909091,107.0638765244908L134.26363636363635,73.18522013123227L134.5090909090909,72.82429483470551L134.63181818181818,51.52809211574398L134.87727272727273,35.70704076863634L135,31.781304968460887L135.61363636363637,27.199105485119745L135.8590909090909,25.11795386304819L135.9818181818182,15.704249099673017L136.10454545454547,62.90425207363562L136.22727272727272,47.431463683527014L136.35,35.32741806798057L136.47272727272727,29.029966055709018L136.59545454545454,28.36867471895155L136.8409090909091,33.31618945814157L136.96363636363637,14.536882692676688L137.08636363636361,29.990394672215434L137.45454545454544,181.70010890988058L137.5772727272727,177.12409862534722L137.7,110.39647660646877L137.8227272727273,81.4194915890325L138.0681818181818,61.43553346393213L138.80454545454543,70.2279988407958L138.92727272727274,44.403419511309046L139.05,39.07748657273562L139.29545454545453,28.904845510764105L139.78636363636363,50.5611824243329L140.15454545454546,35.720861199443235L140.52272727272728,33.19978351768531L141.01363636363635,20.924707671264205L141.3818181818182,45.03108149782478L141.50454545454545,43.833397948834886L141.62727272727273,32.72301602607648L141.87272727272727,48.62152586129773L141.99545454545455,38.2682133778782L142.11818181818182,93.5888782659077L142.36363636363635,95.45826150887623L142.48636363636362,104.52194811054017L142.60909090909092,73.51546030728683L142.7318181818182,47.34087174826162L142.85454545454544,40.394395313819665L143.1,31.847546936368175L143.22272727272727,39.04045708256672L143.46818181818182,42.762588592038455L143.71363636363634,65.40769863823934L143.83636363636364,92.1327072185267L144.0818181818182,58.882229006409304L144.3272727272727,60.011941287588826L144.45000000000002,48.07123885969688L144.57272727272726,46.473712411048844L144.69545454545454,34.455960015370465L145.06363636363636,50.47751229996288L145.18636363636364,40.8661933540988L145.3090909090909,47.198167359809986L145.67727272727274,37.711005566108085L145.8,30.162959598058148L146.78181818181818,27.786688198179867L147.15,29.107447784860742L147.27272727272725,32.052459717821286L147.51818181818183,34.635686922687974L147.76363636363635,30.767483549487434L147.88636363636363,72.16514987777079L148.25454545454545,71.54443628210066L148.37727272727273,75.84812959800998L148.62272727272727,64.77299027902482L148.74545454545455,73.4926072434325L148.86818181818182,59.94533803914484L148.99090909090907,85.96036478790204L149.35909090909092,88.431789951995L150.34090909090907,80.33944496957986L150.46363636363637,61.30691824822606L150.58636363636364,59.239996829445346L150.83181818181816,50.131989144573026L151.07727272727274,47.78436440425576L151.20000000000002,44.96560326932214L151.32272727272726,39.71160411666702L151.56818181818184,93.48993735212566L151.81363636363636,73.05711510597654L151.93636363636364,67.9971085239598L152.0590909090909,51.600556555338606L152.42727272727274,58.685915865272314L152.54999999999998,58.038404511075534L152.67272727272726,41.76578438679056L153.28636363636363,31.334044244287117L153.53181818181818,39.32632171296902L153.65454545454546,30.538534707926967L153.89999999999998,34.91526440805487L154.02272727272728,41.549255633511514L154.26818181818183,41.224538006876244L155.00454545454545,32.34563255220247L155.12727272727273,66.8027743810993L155.37272727272727,51.255316848432216L155.61818181818182,52.392464277074154L156.1090909090909,44.687485144690555L156.35454545454544,41.771491245124245L156.6,50.33911320906551L156.84545454545454,49.54178226793675L157.0909090909091,39.33977997782811L157.33636363636364,42.64537504007143L157.4590909090909,32.38156305962764L157.58181818181816,45.89273712166554L157.70454545454547,33.142399484685136L157.82727272727274,35.21544896052509L158.3181818181818,36.3850768237498L158.56363636363636,44.73210290844291L158.68636363636364,35.711954139322316L159.4227272727273,84.18726788917259L159.6681818181818,70.44428965424969L159.91363636363636,122.46937244519897L160.03636363636366,199.8523739420494L160.89545454545456,197.15415259277069L161.26363636363638,130.87633006617503L161.5090909090909,93.3363945534525L161.87727272727273,195.2879242927257L162.24545454545455,138.06965885343655L162.3681818181818,161.4118022071288L162.61363636363637,133.2570898024419L162.73636363636365,138.26083328057527L162.8590909090909,96.20850654678992L162.98181818181817,81.22012698791953L163.22727272727272,72.00414211834917L163.35,63.35737132600117L163.59545454545454,58.16930885059269L163.71818181818182,60.02940012778449L163.8409090909091,63.44641471961367L164.2090909090909,73.06767101919057L164.3318181818182,49.52156164548103L164.5772727272727,74.73317018926883L165.5590909090909,65.36579727995802L165.6818181818182,106.80409889142815L165.80454545454546,75.62712066603363L165.9272727272727,64.04641867418744L166.05,54.94544129812576L166.29545454545456,49.707812006735246L166.4181818181818,45.15469647375483L166.54090909090908,37.44989839153294L166.9090909090909,34.385609477501575L167.03181818181818,27.648309188926415L167.15454545454546,28.504655955937647L167.52272727272728,22.1155845395965L167.7681818181818,15.090408329500962L168.99545454545452,24.97822051306649L169.36363636363637,27.719174462914285L169.6090909090909,27.433796118711296L169.7318181818182,21.10205952585726L169.97727272727272,23.16671986735519L170.1,27.226240321139407L170.22272727272727,24.466066696727864L170.46818181818182,24.44275427966356L170.83636363636361,28.956484658176237L170.95909090909092,45.17367454925446L171.0818181818182,45.403341892714884L171.20454545454544,38.489859177681794L171.3272727272727,39.24049648881729L171.45,37.38991904998383L171.5727272727273,37.1703461214579L171.69545454545454,33.17870093611999L171.9409090909091,37.092978723217094L172.18636363636364,32.01890149555644L172.3090909090909,36.991065304529556L172.55454545454543,34.258713269861964L172.8,34.10404182948612L173.04545454545453,39.72653761790986L173.1681818181818,33.524835010093845L173.2909090909091,43.68412588818082L173.41363636363636,32.85640992393085L173.53636363636363,87.74367741149617L173.6590909090909,80.89155280233655L174.15,89.39845616603725L174.76363636363635,65.55474414220417L174.88636363636363,53.10426581973474L175.1318181818182,70.0541150395557L175.25454545454545,127.65375903990764L175.37727272727273,96.67293965665569L175.74545454545455,85.06152932553262L175.86818181818182,70.2268282932559L175.9909090909091,53.086792061479684L176.23636363636362,49.78020328864427L176.60454545454544,49.725849071650515L176.97272727272727,47.02126760453508L177.21818181818182,36.26888124448437L177.46363636363634,40.06046590985184L177.58636363636364,35.87774816621039L177.8318181818182,57.49144644420653L177.95454545454544,50.344641559609926L178.32272727272726,45.091583271796296L178.44545454545454,75.11816121338224L178.5681818181818,64.78022018193315L178.81363636363636,53.01056055497526L178.93636363636364,50.77364156408013L179.0590909090909,45.64579056360194L179.30454545454546,39.526101914989475L179.42727272727274,42.75716820236856L179.55,50.26270298288219L179.67272727272726,80.74474999979668L179.79545454545453,143.12357567355312L179.91818181818184,99.27455562713905L180.16363636363636,103.02602497555641L180.53181818181818,82.93547639738215L180.65454545454546,71.91997276240865L180.9,57.36861392554274L181.3909090909091,49.6027739804769L181.51363636363635,44.57226090203297L181.75909090909093,144.2812768254896L182.25,103.90292790139898L182.49545454545455,107.80720087650457L182.74090909090907,107.10643494584048L182.98636363636365,134.0010376719106L183.10909090909092,124.67848591491357L183.23181818181817,98.59892189791695L183.35454545454544,88.66648214036786L183.60000000000002,70.01463833436108L183.96818181818182,63.054090922979896L184.09090909090907,62.217899481003144L184.33636363636364,57.63402938815663L184.45909090909092,47.90662603362026L184.58181818181816,47.04311278333305L184.82727272727274,38.65714999955945L185.31818181818184,43.20077241016623L185.56363636363636,41.54763167234078L185.68636363636364,51.614983756136084L185.93181818181816,109.3160400144994L186.05454545454546,99.17925990538168L186.17727272727274,78.47486117432202L186.42272727272726,59.44614974826515L186.54545454545456,52.63084254366055L187.03636363636363,58.190708456646725L187.15909090909093,42.599536644346955L187.28181818181818,50.91014227088068L187.40454545454546,44.98567276487213L187.52727272727273,68.22593725496269L187.77272727272728,155.20754745467767L188.01818181818183,107.56411587514869L188.14090909090908,78.08728339265815L188.26363636363635,75.02351456875121L188.38636363636365,49.0619243502293L188.50909090909093,44.24775112388572L188.63181818181818,35.86655400227462L189,25.864906966871377L189.36818181818182,39.6075818182155L189.61363636363637,45.032814147539696L189.8590909090909,55.93285124448964L189.98181818181817,51.264881664206044L190.10454545454544,44.75295379977722L190.22727272727275,33.942917604574326L190.35,28.050862133102846L190.8409090909091,30.230927502869203L191.33181818181816,29.905823299741563L191.57727272727274,45.81783122387872L191.7,33.02325412373183L192.0681818181818,34.10478456461687L192.1909090909091,44.55150837686213L192.31363636363636,37.458994644799795L192.6818181818182,44.782839022826174L193.04999999999998,54.74404065772882L193.1727272727273,68.36565933802615L193.29545454545456,58.427759231203105L193.54090909090908,64.8605918294641L193.66363636363636,70.50183845796894L193.78636363636366,53.91996622823931L194.15454545454546,66.75783567871699L194.4,55.08790338782163L194.52272727272728,56.02800066916756L194.64545454545456,72.9959367731137L194.7681818181818,62.83906911724277L194.89090909090908,60.45609463997726L195.01363636363638,52.7170450553181L195.2590909090909,53.78891395717188L195.38181818181818,59.62792119496587L195.75,58.67780953117322L196.36363636363637,72.80427502076623L196.85454545454547,63.020879354959774L197.83636363636364,177.02441335134853L200.29090909090908,187.77850086687462L200.41363636363639,155.0892149400625L200.53636363636363,145.64480971049707L200.78181818181818,170.2616534158666L200.90454545454546,176.86709751636283L201.02727272727273,198.34762071341467L201.27272727272728,190.1559354231964L201.5181818181818,143.6748920778161L202.25454545454548,98.71457193492142L202.5,84.43075980066195L202.9909090909091,76.75124605488139L203.11363636363637,52.32532124514161L203.23636363636362,44.49844401356411L203.72727272727272,40.4704857425494L204.3409090909091,128.0144527767053L204.46363636363637,76.18036580168906L204.95454545454544,89.76347732593797L205.44545454545454,86.18558797866211L205.8136363636364,61.845827827632704L206.1818181818182,50.2849497853403L206.30454545454543,34.5159444367108L206.42727272727274,38.7860983583457L206.79545454545453,27.690835402793937L206.9181818181818,30.90533333205415L207.28636363636363,27.861103327175016L207.4090909090909,30.042870397031297L207.53181818181818,70.7654066292411L207.65454545454546,113.16139603900764L207.77727272727273,100.22433920650326L208.63636363636363,84.29744298427484L208.7590909090909,65.90847506027825L208.8818181818182,50.941342722780924L209.00454545454545,35.8002020665448L209.25,27.532089385297674L209.37272727272727,40.23688215786619L209.49545454545455,38.35875956281791L209.61818181818182,27.360230303195394L209.7409090909091,33.82450181030465L209.86363636363635,36.7380893575152L209.98636363636362,22.676330396354196L210.10909090909092,34.502702515613024L210.2318181818182,25.86281611996317L210.6,21.569657817348688L210.84545454545454,27.08422313622555L211.45909090909092,26.23660527760801L211.5818181818182,34.486311263411L211.70454545454544,68.53239254151005L211.95000000000002,44.05387213226718L212.8090909090909,32.18748413560723L213.05454545454546,68.56363422297326L213.54545454545453,52.2376309312757L213.66818181818184,43.40665264590737L213.7909090909091,33.20933873453297L214.28181818181818,25.3097549855636L214.52727272727273,23.316175495382044L214.65,21.006648799656006L214.89545454545456,20.956917250679805L215.01818181818183,22.486019924000026L215.26363636363635,36.466870590874905L215.38636363636363,25.111717918414136L216.12272727272727,13.25114406281637L216.24545454545455,22.983888418280294L216.36818181818182,36.69138986516285L216.98181818181817,24.42985777049235L217.10454545454544,22.19427092068771L218.20909090909092,23.525239415129608L218.33181818181816,17.049580256438595L218.70000000000002,21.25499672907534L218.82272727272726,32.90788409243686L218.94545454545454,29.730801851337745L219.06818181818184,18.991722316019075L219.1909090909091,59.30984099535577L219.31363636363636,50.173895644118616L219.43636363636364,42.98498318610831L219.68181818181816,37.18724759827995L219.92727272727274,38.01371860749122L220.04999999999998,23.590111590901248L220.17272727272726,40.246857129024306L220.41818181818184,21.88701665549553L220.54090909090908,21.856498742992116L220.78636363636363,21.912389817771608L221.03181818181818,13.409901561103618L221.15454545454546,30.575988639452095L221.39999999999998,23.95235039535577L221.52272727272728,13.223691616914467L222.01363636363635,41.07828826574254L222.13636363636365,21.79190909187523L222.38181818181818,55.200452585937704L222.50454545454545,37.6136497616297L222.62727272727273,32.77686671969512L222.75,27.573837069019607L222.99545454545455,26.90138274868953L223.11818181818182,17.88768543267622L223.24090909090907,19.75370729842342L223.36363636363637,28.96378071831827L223.85454545454544,24.989178179068652L224.1,25.27638559243873L224.22272727272727,18.471628741631346L224.34545454545454,17.654709813719965L224.5909090909091,38.392609642581675L224.83636363636364,40.74073670306126L225.08181818181816,40.14581207035936L225.32727272727274,29.100278208250508L225.45,25.219480317589113L225.57272727272726,24.746398807619205L225.8181818181818,14.590894199046648L225.9409090909091,13.322116551776274L226.06363636363636,34.16026192783085L226.18636363636364,18.68027046846771L226.30909090909088,28.171314975783403L226.4318181818182,31.490780032374886L226.67727272727274,23.01648545068275L226.79999999999998,19.26824483753304L227.1681818181818,13.753365287071475L227.29090909090908,39.54069524340886L227.53636363636366,36.38245747883981L227.6590909090909,46.957289304732434L228.02727272727273,34.00373626136759L228.15,30.462514974974468L228.27272727272728,24.552082597197135L228.39545454545456,19.00202230154303L228.5181818181818,15.374827167623193L228.76363636363638,19.95298591925543L229.25454545454545,50.53435621067253L229.5,29.32129875066498L229.62272727272727,45.24415936018593L229.74545454545455,45.66823824611575L230.11363636363637,39.984781458182724L230.23636363636365,41.696039792421246L230.48181818181817,28.917035839868912L230.60454545454547,46.18918243760693L230.97272727272727,31.390315960139304L231.09545454545454,38.8406719865138L231.21818181818182,24.902855330810326L231.3409090909091,25.001986416640435L231.58636363636364,18.752200169838314L231.8318181818182,20.495021607565292L232.0772727272727,19.83336922293018L232.2,33.39089205720951L232.44545454545457,49.61586605822299L232.5681818181818,42.946972723695794L232.6909090909091,38.64882943385331L232.81363636363636,56.853135379277205L233.0590909090909,60.87283946998167L233.4272727272727,63.06170479015885L233.55,41.5138293716698L233.6727272727273,35.48798359712393L233.79545454545456,41.44767621326732L233.9181818181818,34.63171998958692L234.28636363636363,31.729727079278295L234.4090909090909,23.679618102196805L234.65454545454546,23.00626143329343L234.77727272727273,31.43472595520614L234.9,35.749786445543606L235.02272727272728,33.959508555557896L235.2681818181818,23.978309808628676L235.3909090909091,26.30265632775802L235.51363636363638,18.49342493717233L236.00454545454548,24.719070652152578L236.37272727272727,29.790442549601444L236.49545454545452,21.996282961018697L236.61818181818182,32.75868958595196L236.98636363636362,22.886809315460027L237.1090909090909,21.862408093319257L237.2318181818182,33.865945489230604L237.35454545454547,31.864228624714436L237.47727272727272,23.092150961525714L237.72272727272727,37.79552457044599L237.84545454545454,39.19490483588089L237.96818181818182,35.65557047835619L238.33636363636361,30.785447437236463L238.45909090909092,21.183099602861024L238.70454545454544,20.84018226576115L238.8272727272727,20.115019107534383L238.95,25.17226273100011L239.3181818181818,47.35665739941785L239.5636363636364,40.775227483320684L239.68636363636364,28.438750276690108L239.8090909090909,21.556628376080816L239.9318181818182,22.622889464996092L240.05454545454543,22.89163700693886L240.4227272727273,29.06499147387765L240.7909090909091,41.601834344700464L240.91363636363636,25.29777009954149L241.28181818181818,13.882539794863806L241.40454545454546,19.87418520809501L241.89545454545453,56.5733835480296L242.26363636363635,79.40947426448393L242.38636363636363,100.0140081709044L242.6318181818182,59.454300860490385L242.87727272727273,48.99878891702117L243.12272727272727,43.6159036183083L243.24545454545455,79.28023567341236L243.36818181818182,49.166593542948824L243.4909090909091,46.759916109594954L243.9818181818182,32.10376527473391L244.10454545454544,29.0995752487484L244.22727272727272,50.52961662256138L244.47272727272727,66.7277784517021L244.59545454545454,71.77055407587385L244.71818181818182,66.7799609722119L245.20909090909092,63.48879782089183L245.45454545454544,51.7162943823846L245.70000000000002,39.75406537912557L245.94545454545454,72.88062583483482L246.0681818181818,45.252625817521725L246.31363636363636,35.87586424020815L246.43636363636364,18.596252854275022L246.80454545454546,17.803686103587047L247.05,34.10303289971661L247.17272727272726,54.645070214759414L247.5409090909091,32.01033261996139L247.9090909090909,35.352780554185046L248.4,32.75632966368744L248.64545454545456,26.744943122919135L248.76818181818183,39.690392578157535L249.13636363636363,21.998348858661437L249.62727272727273,29.419792119684658L249.75,27.043980422033545L249.87272727272727,27.028679694183523L249.99545454545455,22.937344029813687L250.36363636363635,36.218252298397246L250.48636363636365,35.353967068887854L250.60909090909092,41.66407358544986L250.85454545454544,115.74106657444247L250.97727272727272,92.19729311429839L251.10000000000002,76.43823728062766L251.34545454545454,53.993264872420156L251.46818181818182,48.690943550223395L251.83636363636364,39.72005028197422L251.95909090909092,34.78272525471034L252.20454545454544,29.07415947915032L252.45000000000002,20.972898540502584L252.57272727272726,32.81282700157443L252.69545454545454,32.41993835602003L253.18636363636364,39.977858180008425L253.55454545454546,40.87566578042694L253.67727272727274,109.33011777193583L253.79999999999998,77.95930370683148L253.92272727272726,71.977598863808L254.29090909090908,51.91084806798025L254.65909090909093,47.589897112120234L254.78181818181818,50.564221546690725L254.90454545454546,91.31708126404308L255.02727272727273,66.85432284556877L255.14999999999998,67.98693095137536L255.39545454545456,76.68275429302301L255.76363636363635,55.99572397168682L256.1318181818182,39.79780617294497L256.6227272727273,75.7275945600142L256.74545454545455,88.97205015756205L256.8681818181818,63.517705134973646L256.9909090909091,55.37058306481049L257.1136363636364,54.34221125093394L257.3590909090909,62.2608593967392L257.4818181818182,75.99328211944203L257.6045454545455,62.633323788647886" style="fill: none;" fill="none"></path></g></g></g></g><g opacity="0.2"><g><g><g><path stroke="rgb(255, 112, 67)" stroke-width="2px" d="M29.7,235.2068985700605L29.94545454545455,166.17810380458812L30.068181818181817,178.4249211549757L30.313636363636363,224.63050138950325L30.55909090909091,155.78633201122267L30.68181818181818,205.1463688611982L31.05,156.90023851394636L31.172727272727272,218.13520443439458L31.295454545454543,197.3525400161741L31.418181818181818,122.57046651840194L31.540909090909093,135.18917214870436L31.90909090909091,109.58163094520555L32.03181818181818,147.43598949909193L32.27727272727273,110.50915372371661L32.52272727272727,122.57046651840194L32.64545454545455,99.00435459613787L32.768181818181816,99.74637281894671L32.89090909090909,83.78858518600452L33.25909090909091,92.69544136524188L33.38181818181818,117.74646890163409L33.50454545454545,93.43745958805071L33.627272727272725,81.19064223766316L33.872727272727275,100.11738193035113L34.24090909090909,99.18985915184008L34.85454545454545,73.76782250404348L34.97727272727273,76.92227911949148L35.1,93.2519550323485L35.222727272727276,46.67536568641655L35.34545454545455,75.25273811817159L35.46818181818182,75.25273811817159L36.08181818181818,67.45890927314748L37.06363636363636,62.44852793216696L37.43181818181818,51.500242471694854L37.554545454545455,49.64431774616233L38.413636363636364,55.76860558986655L38.78181818181818,43.52090907096855L39.027272727272724,44.262927293777395L39.15,41.29397523403159L39.27272727272727,88.24157369136798L39.763636363636365,31.088587164878774L39.88636363636364,77.6642973423003L40.009090909090915,34.42854833602899L40.377272727272725,36.0989685058593L40.5,45.74784290790551L40.86818181818182,84.53060340881338L41.3590909090909,16.80034053325647L41.60454545454545,29.60367155075066L41.85,36.0989685058593L41.972727272727276,43.14989995956414L42.095454545454544,41.48035895824425L42.21818181818182,34.24304378032677L42.46363636363637,30.717578053474362L42.709090909090904,58.55205309391012L42.95454545454545,43.52090907096855L43.32272727272728,58.737557649612334L43.445454545454545,4.9236531257629L43.56818181818182,34.98506200313562L43.81363636363636,35.9134639501571L43.93636363636364,29.97468066215509L44.059090909090905,36.655482172965925L44.42727272727273,42.59338629245751L44.67272727272728,17.171349644660904L44.79545454545455,42.778890848159705L45.04090909090909,39.99544334411614L45.163636363636364,27.19123315811151L45.53181818181818,14.758911252021731L46.14545454545454,20.511310815811097L46.268181818181816,42.222377181053076L46.39090909090909,56.69612836837759L46.63636363636364,35.17056655883781L46.75909090909091,27.37673771381372L47.00454545454546,21.067824482917725L47.25,28.67614877223962L47.37272727272727,20.325806260108884L47.49545454545454,17.727863311767532L47.61818181818182,43.33540451526633L47.86363636363637,13.645883917808474L47.986363636363635,28.861653327941834L48.845454545454544,13.645883917808474L49.336363636363636,19.212778925895627L49.82727272727273,42.96439540386192L49.95,1.5836919546126862L50.07272727272727,24.40778565406794L50.56363636363637,24.40778565406794L50.68636363636363,47.23275852203362L50.93181818181818,16.057443141937203L51.3,5.852055072784385L51.42272727272727,29.23266243934625L51.79090909090909,4.9236531257629L51.913636363636364,12.531977415084793L52.15909090909091,57.25264203548422L52.28181818181818,9.934034466743423L52.404545454545456,3.9961303472518397L52.65,16.243826866149842L52.77272727272727,-2.869296550750785L52.89545454545455,20.325806260108884L53.018181818181816,11.604454636573733L53.14090909090909,22.923749208450253L53.263636363636365,23.480262875556882L53.63181818181818,37.9540140628814L54,36.655482172965925L54.49090909090909,26.263710379600465L54.61363636363636,1.5836919546126862L54.85909090909091,34.24304378032677L55.10454545454546,-2.4982874393463526L55.227272727272734,28.119635105132993L55.84090909090909,41.1084706783294L56.20909090909091,34.24304378032677L56.331818181818186,4.9236531257629L56.45454545454545,20.696815371513313L56.57727272727272,78.03618562221516L56.82272727272727,21.810721874236997L57.31363636363636,4.181634902954055L57.55909090909091,18.469881534576356L57.804545454545455,30.532073497772146L58.05,67.8299183845519L58.663636363636364,40.36645245552055L58.90909090909091,14.758911252021731L59.4,0.09965550899501685L60.01363636363636,-1.385260105133096L60.25909090909091,1.3981873989104896L60.38181818181818,12.71748197078699L60.75,2.326589345931974L60.99545454545455,2.1410847902297583L61.11818181818182,23.85127198696131L61.240909090909085,140.01404893398268L61.486363636363635,7.707100629806466L61.60909090909091,17.171349644660904L61.731818181818184,6.223064184188797L62.222727272727276,35.541575670242246L62.345454545454544,11.23344552516932L62.590909090909086,35.17056655883781L62.95909090909091,26.449214935302663L63.449999999999996,9.748529911041206L63.57272727272727,21.810721874236997L63.695454545454545,9.748529911041206L63.81818181818182,7.336091518402053L64.06363636363636,18.655386090278572L64.43181818181819,8.821007132530166L64.55454545454546,43.89191818237296L64.67727272727272,8.449998021125754L65.04545454545455,64.86096632480611L65.16818181818182,10.11953902244564L65.41363636363637,12.160968303680361L66.15,9.934034466743423L66.39545454545454,7.150586962699838L66.76363636363637,2.8831030130386024L66.88636363636364,28.490644216537405L67.13181818181818,49.0878040790557L67.25454545454545,57.25264203548422L67.86818181818181,4.181634902954055L67.9909090909091,50.3872151374816L68.23636363636363,40.92296612262718L68.48181818181818,51.68574702739707L68.60454545454546,10.67693185806269L68.72727272727272,23.109253764152466L69.09545454545454,26.449214935302663L69.21818181818182,4.552644014358468L69.3409090909091,51.12923336029044L69.58636363636364,15.31542491912836L69.7090909090909,29.23266243934625L69.95454545454545,58.737557649612334L70.07727272727273,26.07820582389825L70.32272727272726,264.34078466892214L70.56818181818181,6.037559628486581L70.81363636363636,3.068607568740799L70.93636363636364,57.62365114688863L71.05909090909091,25.521692156791623L71.30454545454546,-1.756269216537528L71.42727272727272,124.9829049110411L71.79545454545455,15.31542491912836L71.91818181818182,41.851368069648665L72.0409090909091,7.893484354019126L72.16363636363636,21.624338150024354L72.4090909090909,10.862436413764907L72.53181818181818,24.222281098365723L72.65454545454546,13.273995637893618L72.77727272727273,12.531977415084793L73.88181818181818,82.67467868328083L74.00454545454546,-9.364593505859402L74.25,3.254112124443015L74.61818181818182,15.68643403053279L75.47727272727272,39.43892967700951L75.60000000000001,-4.168707609176662L76.09090909090908,27.37673771381372L76.21363636363637,15.31542491912836L76.33636363636363,29.60367155075066L76.58181818181818,14.202397584915103L76.82727272727273,24.03677654266351L77.31818181818183,53.541671752929595L78.42272727272727,22.181730985641426L78.54545454545455,53.3561671972274L78.66818181818182,46.304356575012136L78.79090909090908,-1.756269216537528L79.03636363636363,68.94294571876516L79.1590909090909,2.326589345931974L79.52727272727273,20.325806260108884L79.89545454545454,11.604454636573733L80.63181818181819,3.8106257915496435L80.75454545454545,35.35607111454003L80.87727272727273,8.264493465423538L81,43.33540451526633L81.12272727272727,12.531977415084793L81.36818181818182,-3.9832030534744653L81.49090909090908,24.59329020977014L81.61363636363636,124.42639124393448L81.85909090909091,259.1448987722394L81.98181818181818,32.572623610496464L82.10454545454544,17.727863311767532L82.35,96.77742075920094L82.59545454545454,21.067824482917725L82.7181818181818,47.974776744842444L83.2090909090909,78.03618562221516L84.06818181818181,19.583788037300057L84.43636363636364,16.985845088958687L84.55909090909091,18.28437697887416L84.80454545454545,-1.1997555494308996L85.05,15.68643403053279L85.41818181818181,65.97399365901937L86.76818181818182,-11.405143618583718L87.13636363636364,42.40788173675529L87.25909090909092,21.624338150024354L87.38181818181818,11.975463747978164L87.62727272727273,28.305139660835206L87.87272727272727,27.19123315811151L87.99545454545455,8.449998021125754L88.2409090909091,14.944415807723946L88.85454545454546,24.965178489684995L88.97727272727272,0.47066462039942925L89.71363636363637,12.531977415084793L89.95909090909092,20.882319927215512L90.08181818181818,6.594073295593209L90.20454545454545,6.408568739891013L90.32727272727273,15.31542491912836L90.45,4.738148570060684L90.57272727272728,63.56155526638022L90.69545454545455,6.037559628486581L90.81818181818181,2.8831030130386024L90.94090909090909,17.171349644660904L91.06363636363636,18.469881534576356L91.30909090909091,2.1410847902297583L91.67727272727272,24.59329020977014L91.80000000000001,8.264493465423538L91.92272727272727,4.9236531257629L92.16818181818182,16.42933142185206L92.65909090909092,0.09965550899501685L92.90454545454546,23.480262875556882L93.14999999999999,16.614835977554275L93.27272727272728,16.985845088958687L93.64090909090909,0.47066462039942925L93.76363636363637,16.985845088958687L93.88636363636364,-3.054801106452981L94.13181818181818,16.80034053325647L94.37727272727273,-5.4672394990921545L94.62272727272727,5.852055072784385L94.86818181818182,-6.395641446113639L94.99090909090908,-12.890059232711831L95.35909090909091,29.60367155075066L95.60454545454544,74.1388316154479L95.72727272727273,37.211995840072554L95.85,66.34500277042379L95.97272727272727,11.604454636573733L96.09545454545454,32.20161449909203L96.21818181818182,-1.014250993728664L96.46363636363637,12.531977415084793L96.58636363636364,0.2851600646972329L97.2,-0.45685815811161157L97.32272727272728,8.078988909721321L97.56818181818183,1.3981873989104896L97.69090909090909,20.140301704406685L97.81363636363636,-4.910725831985526L97.93636363636364,13.831388473510689L98.18181818181819,6.594073295593209L98.42727272727274,-3.2403056621551776L98.67272727272727,-10.477620840072658L98.91818181818182,2.1410847902297583L99.16363636363636,-6.581146001815835L99.4090909090909,161.1677224636076L99.53181818181818,4.552644014358468L99.65454545454546,28.305139660835206L100.02272727272728,3.068607568740799L100.51363636363637,68.75744116306296L100.63636363636364,7.150586962699838L100.88181818181819,7.150586962699838L101.00454545454545,44.820320129394446L101.25,-6.023753166198783L101.7409090909091,-5.281734943389919L101.86363636363636,21.43883359432214L102.10909090909091,1.2126828432082737L102.35454545454546,12.160968303680361L103.21363636363637,13.273995637893618L103.33636363636364,21.810721874236997L103.58181818181818,3.254112124443015L103.70454545454545,44.63481557369225L103.82727272727273,20.140301704406685L103.95,59.665080428123375L104.07272727272726,9.006511688232383L104.19545454545455,14.387902140617317L104.4409090909091,6.594073295593209L104.56363636363636,37.02649128437036L105.05454545454546,88.79808735847463L105.17727272727272,32.016109943389836L105.42272727272727,11.604454636573733L105.66818181818182,-1.9417737722397244L106.03636363636363,11.789959192275948L106.28181818181818,20.140301704406685L106.40454545454546,13.088491082191421L106.52727272727273,11.789959192275948L106.89545454545456,39.99544334411614L107.01818181818182,36.0989685058593L107.14090909090909,50.2017105817794L107.26363636363637,8.264493465423538L107.38636363636363,10.305043578147835L107.63181818181818,124.24088668823228L107.75454545454546,113.47810578346238L107.87727272727273,12.160968303680361L108.12272727272727,-2.4982874393463526L108.24545454545454,11.418950080871536L108.36818181818182,49.829822301864546L108.49090909090908,56.88163292407981L108.61363636363636,-3.9832030534744653L108.73636363636363,100.11738193035113L108.98181818181818,19.769292593002255L109.10454545454546,23.480262875556882L109.47272727272727,25.150683045387208L109.96363636363637,65.04647088050834L110.33181818181818,58.36654853820792L110.45454545454547,32.20161449909203L110.57727272727273,35.72708022594444L110.69999999999999,4.367139458656272L110.82272727272728,-17.34304773807528L110.94545454545454,22.738244652748055L111.06818181818183,21.99622642993921L111.19090909090909,12.531977415084793L111.43636363636364,-5.096230387687722L111.55909090909091,5.4810459613799525L111.68181818181819,21.624338150024354L112.17272727272727,10.305043578147835L112.66363636363637,-2.1272783279419207L112.78636363636363,-4.910725831985526L113.03181818181818,105.49877238273606L113.15454545454544,-17.900440573692336L113.27727272727273,19.95479714870447L113.39999999999999,-14.188591122627285L113.52272727272728,17.727863311767532L113.64545454545454,6.223064184188797L114.01363636363637,-6.209257721900979L114.13636363636364,8.078988909721321L114.2590909090909,11.418950080871536L114.87272727272727,39.253425121307295L115.11818181818182,19.39828348159784L115.24090909090908,16.42933142185206L115.36363636363636,33.130016446113515L115.48636363636363,44.449311017990034L115.73181818181818,6.965082406997642L116.1,-12.148041009902967L116.22272727272728,27.934130549430776L116.5909090909091,121.27193462848648L116.71363636363635,-0.2713536024094152L116.83636363636364,2.6975984573363867L117.08181818181819,-9.735602617263833L117.32727272727273,-12.890059232711831L117.69545454545455,11.975463747978164L117.81818181818181,25.150683045387208L118.06363636363636,37.58300495147699L118.43181818181819,80.26224029064167L118.55454545454545,-11.77615272998811L118.67727272727274,96.03540253639208L118.92272727272727,-6.952155113220267L119.04545454545455,20.511310815811097L119.16818181818181,112.55058300495135L119.2909090909091,201.62002396583534L119.41363636363636,77.10778367519367L119.53636363636365,8.63550257682795L119.6590909090909,4.367139458656272L119.7818181818182,113.29260122776017L120.15,27.748625993728577L120.27272727272727,50.2017105817794L120.76363636363637,20.882319927215512L120.88636363636364,16.80034053325647L121.13181818181818,323.5352004766461L121.37727272727273,195.12560617923717L121.62272727272727,20.511310815811097L121.74545454545455,34.98506200313562L121.86818181818181,-5.652744054794351L121.9909090909091,75.80925178527822L122.11363636363636,50.943728804588226L122.23636363636363,-10.663125395774854L122.48181818181817,46.67536568641655L122.72727272727272,-6.209257721900979L123.3409090909091,-1.014250993728664L123.46363636363637,22.367235541343625L123.58636363636363,-3.054801106452981L123.70909090909092,19.027274370193428L123.83181818181818,9.192016243934578L124.32272727272728,22.367235541343625L124.56818181818181,-3.6121939420700335L124.69090909090909,45.9333474636077L124.93636363636364,32.75812816619866L125.30454545454546,22.923749208450253L125.55000000000001,44.07742273807518L125.67272727272727,-14.931488513946572L125.79545454545453,8.449998021125754L126.16363636363637,16.985845088958687L126.53181818181818,42.03687262535088L126.65454545454546,3.439616680145231L126.89999999999999,151.147838950157L127.14545454545454,28.67614877223962L127.39090909090909,35.35607111454003L127.51363636363637,10.862436413764907L128.00454545454545,15.871938586234988L128.25,21.99622642993921L128.37272727272727,1.0271782875060578L128.49545454545455,23.109253764152466L128.61818181818182,9.563025355339011L128.98636363636365,111.06566739082324L129.23181818181817,-9.364593505859402L129.72272727272727,56.88163292407981L129.96818181818182,76.92227911949148L130.0909090909091,41.851368069648665L130.21363636363637,37.211995840072554L130.33636363636364,-1.1997555494308996L130.4590909090909,8.63550257682795L130.95,8.63550257682795L131.19545454545454,-2.869296550750785L131.3181818181818,50.75822424888603L131.68636363636364,6.594073295593209L131.8090909090909,25.521692156791623L131.9318181818182,106.24166977405535L132.05454545454546,51.500242471694854L132.17727272727274,10.305043578147835L132.4227272727273,17.542358756065315L132.54545454545453,4.9236531257629L132.66818181818184,174.89945542812328L132.79090909090908,132.0347155332564L133.03636363636363,21.253329038619942L133.40454545454546,6.037559628486581L133.65,23.294758319854683L133.77272727272728,32.572623610496464L134.0181818181818,27.37673771381372L134.1409090909091,220.17663371562932L134.26363636363635,22.367235541343625L134.5090909090909,72.28290688991537L134.63181818181818,19.583788037300057L134.87727272727273,11.975463747978164L135,25.892701268196035L135.61363636363637,20.325806260108884L135.8590909090909,21.99622642993921L135.9818181818182,1.5836919546126862L136.10454545454547,133.70425653457625L136.22727272727272,24.222281098365723L136.35,17.171349644660904L136.47272727272727,19.583788037300057L136.59545454545454,27.37673771381372L136.8409090909091,40.737461566924964L136.96363636363637,-13.632077455520657L137.08636363636361,53.17066264152518L137.45454545454544,409.26468026637997L137.5772727272727,170.2600831985472L137.7,10.305043578147835L137.8227272727273,37.9540140628814L138.0681818181818,31.459596276283204L138.80454545454543,83.41669690608967L138.92727272727274,5.666550517082168L139.05,31.088587164878774L139.29545454545453,13.645883917808474L139.78636363636363,83.04568779468526L140.15454545454546,13.460379362106277L140.52272727272728,29.418166995048463L141.01363636363635,2.5120939016341706L141.3818181818182,81.19064223766316L141.50454545454545,42.03687262535088L141.62727272727273,16.057443141937203L141.87272727272727,72.46929061412801L141.99545454545455,22.738244652748055L142.11818181818182,176.5698755979536L142.36363636363635,98.26233637332905L142.48636363636362,118.11747801303848L142.60909090909092,27.00572860240929L142.7318181818182,8.078988909721321L142.85454545454544,29.97468066215509L143.1,19.027274370193428L143.22272727272727,49.829822301864546L143.46818181818182,48.345785856246856L143.71363636363634,99.3753637075423L143.83636363636364,132.22022008895857L144.0818181818182,9.006511688232383L144.3272727272727,61.706509709358116L144.45000000000002,30.16018521785729L144.57272727272726,44.07742273807518L144.69545454545454,16.42933142185206L145.06363636363636,74.5098407268523L145.18636363636364,26.449214935302663L145.3090909090909,56.69612836837759L145.67727272727274,23.480262875556882L145.8,18.84089064598077L146.78181818181818,24.222281098365723L147.15,31.088587164878774L147.27272727272725,36.46997761726373L147.51818181818183,38.51052772998803L147.76363636363635,24.965178489684995L147.88636363636363,134.2616493701933L148.25454545454545,70.61336588859548L148.37727272727273,82.30366957187641L148.62272727272727,48.16028130054466L148.74545454545455,86.57203269004809L148.86818181818182,39.62443423271173L148.99090909090907,124.9829049110411L149.35909090909092,92.13892769813525L150.34090909090907,68.20092749595634L150.46363636363637,32.75812816619866L150.58636363636364,56.139614701270965L150.83181818181816,36.46997761726373L151.07727272727274,44.262927293777395L151.20000000000002,40.737461566924964L151.32272727272726,31.83060538768762L151.56818181818184,174.15743720531444L151.81363636363636,42.40788173675529L151.93636363636364,60.40709865093222L152.0590909090909,27.00572860240929L152.42727272727274,69.31395483016959L152.54999999999998,57.067137479782005L152.67272727272726,17.3568542003631L153.28636363636363,15.68643403053279L153.53181818181818,51.31473791599266L153.65454545454546,17.3568542003631L153.89999999999998,41.48035895824425L154.02272727272728,51.500242471694854L154.26818181818183,40.737461566924964L155.00454545454545,19.027274370193428L155.12727272727273,118.48848712444291L155.37272727272727,27.934130549430776L155.61818181818182,54.09818542003622L156.1090909090909,33.130016446113515L156.35454545454544,37.39750039577477L156.6,63.190546154975785L156.84545454545454,48.345785856246856L157.0909090909091,24.03677654266351L157.33636363636364,47.60376763343803L157.4590909090909,16.985845088958687L157.58181818181816,66.1594982147216L157.70454545454547,14.016893029212905L157.82727272727274,38.32502317428581L158.3181818181818,38.139518618583615L158.56363636363636,57.25264203548422L158.68636363636364,22.181730985641426L159.4227272727273,156.90023851394636L159.6681818181818,49.829822301864546L159.91363636363636,200.5069966316221L160.1590909090909,396.2758446931835L160.89545454545456,75.25273811817159L161.26363636363638,31.459596276283204L161.5090909090909,37.02649128437036L161.87727272727273,348.2152189016339L162.24545454545455,52.2422606945037L162.3681818181818,196.42501723766307L162.61363636363637,91.02502119541157L162.73636363636365,145.76644849777205L162.8590909090909,33.130016446113515L162.98181818181817,58.737557649612334L163.22727272727272,58.18016481399526L163.35,50.3872151374816L163.59545454545454,50.3872151374816L163.71818181818182,62.81953704357137L163.8409090909091,68.57193660736074L164.2090909090909,87.49955546855915L164.3318181818182,14.202397584915103L164.5772727272727,112.55058300495135L165.5590909090909,51.31473791599266L165.6818181818182,168.9615513086317L165.80454545454546,28.861653327941834L165.9272727272727,46.67536568641655L166.05,41.29397523403159L166.29545454545456,41.851368069648665L166.4181818181818,38.32502317428581L166.54090909090908,25.892701268196035L166.9090909090909,29.789176106452878L167.03181818181818,17.542358756065315L167.15454545454546,29.789176106452878L167.52272727272728,12.531977415084793L167.7681818181818,4.552644014358468L168.99545454545452,39.80993878841392L169.36363636363637,31.83060538768762L169.6090909090909,27.00572860240929L169.7318181818182,11.604454636573733L169.97727272727272,26.263710379600465L170.1,33.31552100181573L170.22272727272727,20.325806260108884L170.46818181818182,24.40778565406794L170.83636363636361,35.72708022594444L170.95909090909092,69.49945938587179L171.0818181818182,45.74784290790551L171.20454545454544,28.119635105132993L171.3272727272727,40.36645245552055L171.45,34.614052891731184L171.5727272727273,36.84098672866814L171.69545454545454,27.19123315811151L171.9409090909091,42.96439540386192L172.18636363636364,24.40778565406794L172.3090909090909,44.449311017990034L172.55454545454543,30.16018521785729L172.8,33.87203466892236L173.04545454545453,48.16028130054466L173.1681818181818,24.222281098365723L173.2909090909091,58.92306220531455L173.41363636363636,16.614835977554275L173.53636363636363,170.07457864284495L173.6590909090909,70.61336588859548L174.15,102.15881121158587L174.76363636363635,29.789176106452878L174.88636363636363,34.42854833602899L175.1318181818182,95.47888886928546L175.25454545454545,214.05322504043556L175.37727272727273,50.2017105817794L175.74545454545455,67.64441382884971L175.86818181818182,47.974776744842444L175.9909090909091,27.37673771381372L176.23636363636362,44.820320129394446L176.60454545454544,49.64431774616233L176.97272727272727,42.96439540386192L177.21818181818182,20.140301704406685L177.46363636363634,45.74784290790551L177.58636363636364,29.60367155075066L177.8318181818182,89.91199386119831L177.95454545454544,39.62443423271173L178.32272727272726,37.211995840072554L178.44545454545454,120.1580281257628L178.5681818181818,49.27330863475792L178.81363636363636,35.35607111454003L178.93636363636364,47.418263077735816L179.0590909090909,37.9540140628814L179.30454545454546,30.346568942069947L179.42727272727274,47.60376763343803L179.55,61.52100515365592L179.67272727272726,126.46782052516922L179.79545454545453,236.69181418418862L179.91818181818184,33.50102555751793L180.16363636363636,108.65322899818406L180.53181818181818,52.79965353012077L180.65454545454546,55.3967173099517L180.9,35.541575670242246L181.3909090909091,37.9540140628814L181.51363636363635,37.02649128437036L181.75909090909093,293.8448007106778L182.25,43.33540451526633L182.49545454545455,113.6636103391646L182.74090909090907,106.05528604984269L182.98636363636365,174.34294176101665L183.10909090909092,110.6946582794188L183.23181818181817,59.47957587242118L183.35454545454544,73.76782250404348L183.60000000000002,42.03687262535088L183.96818181818182,52.61326980590811L184.09090909090907,60.96361231803885L184.33636363636364,50.75822424888603L184.45909090909092,33.31552100181573L184.58181818181816,45.74784290790551L184.82727272727274,26.07820582389825L185.31818181818184,50.016206026077185L185.56363636363636,39.0679205656051L185.68636363636364,66.71601188182822L185.93181818181816,195.86762440204598L186.05454545454546,83.97408974170675L186.17727272727274,47.418263077735816L186.42272727272726,30.903082609176575L186.54545454545456,42.40788173675529L187.03636363636363,66.530507326126L187.15909090909093,19.212778925895627L187.28181818181818,63.376050710678L187.40454545454546,36.0989685058593L187.52727272727273,103.08633399009693L187.77272727272728,285.6799627542493L188.01818181818183,36.0989685058593L188.14090909090908,33.87203466892236L188.26363636363635,70.42786133289327L188.38636363636365,10.11953902244564L188.50909090909093,37.02649128437036L188.63181818181818,23.294758319854683L189,10.862436413764907L189.36818181818182,60.22159409523L189.61363636363637,53.17066264152518L189.8590909090909,72.28290688991537L189.98181818181817,44.262927293777395L190.10454545454544,34.98506200313562L190.22727272727275,17.727863311767532L190.35,19.212778925895627L190.8409090909091,33.50102555751793L191.33181818181816,29.418166995048463L191.57727272727274,69.68584311008445L191.7,13.831388473510689L192.0681818181818,35.72708022594444L192.1909090909091,60.22159409523L192.31363636363636,26.820224046707093L192.6818181818182,55.76860558986655L193.04999999999998,69.68584311008445L193.1727272727273,88.79808735847463L193.29545454545456,43.52090907096855L193.54090909090908,74.5098407268523L193.66363636363636,78.9637084007262L193.78636363636366,29.047157883644033L194.15454545454546,86.01463985443104L194.4,37.58300495147699L194.52272727272728,57.43814659118644L194.64545454545456,98.44784092903124L194.7681818181818,47.60376763343803L194.89090909090908,56.88163292407981L195.01363636363638,41.1084706783294L195.2590909090909,55.3967173099517L195.38181818181818,68.38643205165853L195.75,57.25264203548422L196.36363636363637,93.99397325515734L196.85454545454547,48.345785856246856L197.83636363636364,348.02971434593167L200.04545454545456,178.61042571067793L200.29090909090908,138.90014243125898L200.41363636363639,106.05528604984269L200.53636363636363,131.47820186614976L200.78181818181818,207.18691897392253L201.27272727272728,177.86840748786906L201.5181818181818,73.95332705974567L202.25454545454548,31.27409172058099L202.5,63.00504159927359L202.9909090909091,65.23197543621053L203.11363636363637,15.68643403053279L203.23636363636362,32.75812816619866L203.72727272727272,34.42854833602899L204.3409090909091,259.3304033279416L204.46363636363637,-1.5707646608352923L204.95454545454544,110.13814461231217L205.44545454545454,80.8187539577483L205.8136363636364,25.336187601089424L206.1818181818182,32.943632721900876L206.30454545454543,10.862436413764907L206.42727272727274,45.19132924079888L206.79545454545453,11.047940969467124L206.9181818181818,35.72708022594444L207.28636363636363,23.294758319854683L207.4090909090909,33.31552100181573L207.53181818181818,131.84921097755415L207.65454545454546,176.7553801536558L207.77727272727273,80.8187539577483L208.63636363636363,60.40709865093222L208.7590909090909,38.32502317428581L208.8818181818182,28.490644216537405L209.00454545454545,13.088491082191421L209.25,15.129920363426162L209.37272727272727,59.29407131671896L209.49545454545455,35.541575670242246L209.61818181818182,10.862436413764907L209.7409090909091,43.52090907096855L209.86363636363635,41.1084706783294L209.98636363636362,1.5836919546126862L210.10909090909092,52.2422606945037L210.2318181818182,12.902986526489205L210.6,15.129920363426162L210.84545454545454,35.35607111454003L211.45909090909092,24.965178489684995L211.5818181818182,46.860870242118764L211.70454545454544,119.60151445865617L211.95000000000002,7.336091518402053L212.8090909090909,14.387902140617317L213.05454545454546,123.12785935401902L213.54545454545453,27.748625993728577L213.66818181818184,30.16018521785729L213.7909090909091,17.913367867469727L214.28181818181818,13.460379362106277L214.52727272727273,20.325806260108884L214.65,17.542358756065315L214.89545454545456,20.882319927215512L215.01818181818183,24.779673933982796L215.26363636363635,57.43814659118644L215.38636363636363,8.078988909721321L216.12272727272727,-4.539716720581094L216.24545454545455,37.58300495147699L216.36818181818182,57.25264203548422L216.98181818181817,6.037559628486581L217.10454545454544,18.84089064598077L218.20909090909092,25.521692156791623L218.33181818181816,7.336091518402053L218.70000000000002,27.563121438026364L218.82272727272726,50.3872151374816L218.94545454545454,24.965178489684995L219.06818181818184,2.8831030130386024L219.1909090909091,119.78701901435836L219.31363636363636,36.46997761726373L219.43636363636364,32.20161449909203L219.68181818181816,28.490644216537405L219.92727272727274,39.253425121307295L220.04999999999998,1.954701066017118L220.17272727272726,65.23197543621053L220.41818181818184,-5.652744054794351L220.54090909090908,21.810721874236997L220.78636363636363,21.99622642993921L221.03181818181818,0.6561691761016453L221.15454545454546,56.32511925697318L221.39999999999998,14.016893029212905L221.52272727272728,-2.869296550750785L222.01363636363635,82.86018323898304L222.13636363636365,-7.137659668922463L222.38181818181818,105.31326782703387L222.50454545454545,11.23344552516932L222.62727272727273,25.521692156791623L222.75,19.769292593002255L222.99545454545455,25.892701268196035L223.11818181818182,4.367139458656272L223.24090909090907,22.552740097045838L223.36363636363637,42.778890848159705L223.85454545454544,19.027274370193428L224.1,25.707196712493836L224.22272727272727,8.264493465423538L224.34545454545454,16.42933142185206L224.5909090909091,69.49945938587179L224.83636363636364,44.262927293777395L225.08181818181816,39.253425121307295L225.32727272727274,12.531977415084793L225.45,19.39828348159784L225.57272727272726,24.03677654266351L225.8181818181818,-0.6423627138138079L225.9409090909091,11.418950080871536L226.06363636363636,65.41747999191274L226.18636363636364,-4.539716720581094L226.30909090909088,42.40788173675529L226.4318181818182,36.46997761726373L226.67727272727274,10.305043578147835L226.79999999999998,13.645883917808474L227.1681818181818,5.4810459613799525L227.29090909090908,78.22169017791738L227.53636363636366,31.645100831985403L227.6590909090909,62.81953704357137L228.02727272727273,14.573406696319534L228.15,25.150683045387208L228.27272727272728,15.68643403053279L228.39545454545456,10.67693185806269L228.5181818181818,9.934034466743423L228.76363636363638,26.820224046707093L229.25454545454545,96.4064116477965L229.5,-2.4982874393463526L229.62272727272727,69.12845027446737L229.74545454545455,46.304356575012136L230.11363636363637,31.459596276283204L230.23636363636365,44.262927293777395L230.48181818181817,9.748529911041206L230.60454545454547,72.09740233421316L230.97272727272727,9.192016243934578L231.09545454545454,50.016206026077185L231.21818181818182,3.9961303472518397L231.3409090909091,25.150683045387208L231.58636363636364,9.377520799636795L231.8318181818182,23.109253764152466L232.0772727272727,18.84089064598077L232.2,53.72717630863181L232.44545454545457,73.95332705974567L232.5681818181818,32.943632721900876L232.6909090909091,32.20161449909203L232.81363636363636,84.15959429740894L233.0590909090909,66.90239560604086L233.4272727272727,66.34500277042379L233.55,9.192016243934578L233.6727272727273,26.449214935302663L233.79545454545456,50.3872151374816L233.9181818181818,24.40778565406794L234.28636363636363,27.37673771381372L234.4090909090909,11.604454636573733L234.65454545454546,21.99622642993921L234.77727272727273,44.07742273807518L234.9,42.222377181053076L235.02272727272728,31.27409172058099L235.2681818181818,9.006511688232383L235.3909090909091,29.789176106452878L235.51363636363638,6.779577851295425L236.00454545454548,34.057539224624556L236.37272727272727,37.39750039577477L236.49545454545452,10.305043578147835L236.61818181818182,48.902299523353484L236.98636363636362,8.078988909721321L237.1090909090909,20.325806260108884L237.2318181818182,51.87125158309929L237.35454545454547,28.861653327941834L237.47727272727272,9.934034466743423L237.72272727272727,59.85058498382559L237.84545454545454,41.29397523403159L237.96818181818182,30.346568942069947L238.33636363636361,23.480262875556882L238.45909090909092,6.779577851295425L238.70454545454544,20.325806260108884L238.8272727272727,19.027274370193428L238.95,32.75812816619866L239.3181818181818,80.63324940204609L239.5636363636364,30.903082609176575L239.68636363636364,9.934034466743423L239.8090909090909,11.23344552516932L239.9318181818182,24.222281098365723L240.05454545454543,23.294758319854683L240.4227272727273,38.32502317428581L240.7909090909091,60.40709865093222L240.91363636363636,0.8416737318038613L241.28181818181818,-3.2403056621551776L241.40454545454546,28.861653327941834L241.89545454545453,111.62218105792986L242.26363636363635,113.6636103391646L242.38636363636363,130.92080903053267L242.6318181818182,-1.385260105133096L242.87727272727273,33.31552100181573L243.12272727272727,35.541575670242246L243.24545454545455,132.7767337560652L243.36818181818182,3.9961303472518397L243.4909090909091,43.14989995956414L243.9818181818182,10.11953902244564L244.10454545454544,24.59329020977014L244.22727272727272,82.67467868328083L244.47272727272727,91.02502119541157L244.59545454545454,79.33471751213064L244.71818181818182,59.29407131671896L245.20909090909092,58.55205309391012L245.45454545454544,34.057539224624556L245.70000000000002,21.810721874236997L245.94545454545454,122.57046651840194L246.0681818181818,3.8106257915496435L246.31363636363636,21.810721874236997L246.43636363636364,-7.32316422462466L246.80454545454546,16.614835977554275L247.05,58.55205309391012L247.17272727272726,85.45812618732441L247.5409090909091,-1.9417737722397244L247.9090909090909,40.36645245552055L248.4,28.861653327941834L248.64545454545456,17.727863311767532L248.76818181818183,59.108566761016746L249.13636363636363,-4.539716720581094L249.62727272727273,40.55195701122277L249.75,23.480262875556882L249.87272727272727,27.00572860240929L249.99545454545455,16.80034053325647L250.36363636363635,56.139614701270965L250.48636363636365,34.057539224624556L250.60909090909092,51.12923336029044L250.85454545454544,226.85655605792977L250.97727272727272,56.88163292407981L251.10000000000002,52.79965353012077L251.34545454545454,20.325806260108884L251.46818181818182,40.737461566924964L251.83636363636364,26.263710379600465L251.95909090909092,27.37673771381372L252.20454545454544,20.511310815811097L252.45000000000002,8.821007132530166L252.57272727272726,50.572719693183814L252.69545454545454,31.83060538768762L253.18636363636364,51.31473791599266L253.55454545454546,42.222377181053076L253.67727272727274,212.01179575920082L253.79999999999998,30.903082609176575L253.92272727272726,63.00504159927359L254.29090909090908,21.810721874236997L254.65909090909093,41.1084706783294L254.78181818181818,55.025708198547285L254.90454545454546,152.44637084007246L255.02727272727273,30.16018521785729L255.14999999999998,69.68584311008445L255.39545454545456,89.72648930549612L255.76363636363635,24.965178489684995L256.1318181818182,15.500929474830574L256.6227272727273,129.6222771406172L256.74545454545455,108.83873355388627L256.8681818181818,25.336187601089424L256.9909090909091,43.14989995956414L257.1136363636364,52.79965353012077L257.3590909090909,74.1388316154479L257.4818181818182,96.59191620349871L257.6045454545455,42.59338629245751" style="fill: none;" fill="none"></path></g></g></g></g></g></g><g transform="translate(60, 177)" clip-path="url(#clip_1)"><clipPath id="clip_1"><rect width="270" height="23"></rect></clipPath><g><g><line x1="0" y1="0" x2="0" y2="5" style="visibility: inherit;" fill="rgb(0, 0, 0)" stroke="rgb(204, 204, 204)" stroke-width="1px"></line><line x1="24.545454545454547" y1="0" x2="24.545454545454547" y2="5" style="visibility: inherit;" fill="rgb(0, 0, 0)" stroke="rgb(204, 204, 204)" stroke-width="1px"></line><line x1="49.09090909090909" y1="0" x2="49.09090909090909" y2="5" style="visibility: inherit;" fill="rgb(0, 0, 0)" stroke="rgb(204, 204, 204)" stroke-width="1px"></line><line x1="73.63636363636363" y1="0" x2="73.63636363636363" y2="5" style="visibility: inherit;" fill="rgb(0, 0, 0)" stroke="rgb(204, 204, 204)" stroke-width="1px"></line><line x1="98.18181818181819" y1="0" x2="98.18181818181819" y2="5" style="visibility: inherit;" fill="rgb(0, 0, 0)" stroke="rgb(204, 204, 204)" stroke-width="1px"></line><line x1="122.72727272727272" y1="0" x2="122.72727272727272" y2="5" style="visibility: inherit;" fill="rgb(0, 0, 0)" stroke="rgb(204, 204, 204)" stroke-width="1px"></line><line x1="147.27272727272725" y1="0" x2="147.27272727272725" y2="5" style="visibility: inherit;" fill="rgb(0, 0, 0)" stroke="rgb(204, 204, 204)" stroke-width="1px"></line><line x1="171.8181818181818" y1="0" x2="171.8181818181818" y2="5" style="visibility: inherit;" fill="rgb(0, 0, 0)" stroke="rgb(204, 204, 204)" stroke-width="1px"></line><line x1="196.36363636363637" y1="0" x2="196.36363636363637" y2="5" style="visibility: inherit;" fill="rgb(0, 0, 0)" stroke="rgb(204, 204, 204)" stroke-width="1px"></line><line x1="220.90909090909093" y1="0" x2="220.90909090909093" y2="5" style="visibility: inherit;" fill="rgb(0, 0, 0)" stroke="rgb(204, 204, 204)" stroke-width="1px"></line><line x1="245.45454545454544" y1="0" x2="245.45454545454544" y2="5" style="visibility: inherit;" fill="rgb(0, 0, 0)" stroke="rgb(204, 204, 204)" stroke-width="1px"></line><line x1="270" y1="0" x2="270" y2="5" style="visibility: inherit;" fill="rgb(0, 0, 0)" stroke="rgb(204, 204, 204)" stroke-width="1px"></line></g><g transform="translate(0, 8)"><text x="0" y="0" dx="0em" dy="0.95em" style="text-anchor: middle; visibility: hidden; font-family: Roboto, sans-serif; font-size: 12px; font-weight: 200;" fill="rgb(255, 255, 255)" stroke="none" stroke-width="1px">-200</text><text x="24.545454545454547" y="0" dx="0em" dy="0.95em" style="text-anchor: middle; visibility: inherit; font-family: Roboto, sans-serif; font-size: 12px; font-weight: 200;" fill="rgb(255, 255, 255)" stroke="none" stroke-width="1px">0</text><text x="49.09090909090909" y="0" dx="0em" dy="0.95em" style="text-anchor: middle; visibility: hidden; font-family: Roboto, sans-serif; font-size: 12px; font-weight: 200;" fill="rgb(255, 255, 255)" stroke="none" stroke-width="1px">200</text><text x="73.63636363636363" y="0" dx="0em" dy="0.95em" style="text-anchor: middle; visibility: inherit; font-family: Roboto, sans-serif; font-size: 12px; font-weight: 200;" fill="rgb(255, 255, 255)" stroke="none" stroke-width="1px">400</text><text x="98.18181818181819" y="0" dx="0em" dy="0.95em" style="text-anchor: middle; visibility: hidden; font-family: Roboto, sans-serif; font-size: 12px; font-weight: 200;" fill="rgb(255, 255, 255)" stroke="none" stroke-width="1px">600</text><text x="122.72727272727272" y="0" dx="0em" dy="0.95em" style="text-anchor: middle; visibility: inherit; font-family: Roboto, sans-serif; font-size: 12px; font-weight: 200;" fill="rgb(255, 255, 255)" stroke="none" stroke-width="1px">800</text><text x="147.27272727272725" y="0" dx="0em" dy="0.95em" style="text-anchor: middle; visibility: hidden; font-family: Roboto, sans-serif; font-size: 12px; font-weight: 200;" fill="rgb(255, 255, 255)" stroke="none" stroke-width="1px">1k</text><text x="171.8181818181818" y="0" dx="0em" dy="0.95em" style="text-anchor: middle; visibility: inherit; font-family: Roboto, sans-serif; font-size: 12px; font-weight: 200;" fill="rgb(255, 255, 255)" stroke="none" stroke-width="1px">1.2k</text><text x="196.36363636363637" y="0" dx="0em" dy="0.95em" style="text-anchor: middle; visibility: hidden; font-family: Roboto, sans-serif; font-size: 12px; font-weight: 200;" fill="rgb(255, 255, 255)" stroke="none" stroke-width="1px">1.4k</text><text x="220.90909090909093" y="0" dx="0em" dy="0.95em" style="text-anchor: middle; visibility: inherit; font-family: Roboto, sans-serif; font-size: 12px; font-weight: 200;" fill="rgb(255, 255, 255)" stroke="none" stroke-width="1px">1.6k</text><text x="245.45454545454544" y="0" dx="0em" dy="0.95em" style="text-anchor: middle; visibility: hidden; font-family: Roboto, sans-serif; font-size: 12px; font-weight: 200;" fill="rgb(255, 255, 255)" stroke="none" stroke-width="1px">1.8k</text><text x="270" y="0" dx="0em" dy="0.95em" style="text-anchor: middle; visibility: hidden; font-family: Roboto, sans-serif; font-size: 12px; font-weight: 200;" fill="rgb(255, 255, 255)" stroke="none" stroke-width="1px">2k</text></g><line x1="0" y1="0" x2="270" y2="0" fill="rgb(0, 0, 0)" stroke="rgb(204, 204, 204)" stroke-width="1px"></line></g></g></g></g></svg>